<?xml version="1.0" standalone="no"?>
<!DOCTYPE svg PUBLIC "-//W3C//DTD SVG 20010904//EN"
 "http://www.w3.org/TR/2001/REC-SVG-20010904/DTD/svg10.dtd">
<svg version="1.0" xmlns="http://www.w3.org/2000/svg"
 width="260.000000pt" height="260.000000pt" viewBox="0 0 260.000000 260.000000"
 preserveAspectRatio="xMidYMid meet">
<metadata>
Created by potrace 1.14, written by Peter Selinger 2001-2017
</metadata>
<g transform="translate(0.000000,260.000000) scale(0.100000,-0.100000)"
fill="#000000" stroke="none">
<path d="M963 2144 c4 -7 -6 -11 -26 -12 -35 -2 -55 -6 -105 -21 -18 -5 -33
-10 -35 -10 -8 0 -51 -17 -107 -43 -80 -37 -178 -106 -233 -163 -70 -73 -108
-115 -102 -115 4 0 -2 -12 -13 -27 -28 -40 -72 -130 -72 -147 0 -8 -4 -16 -9
-18 -6 -1 -12 -16 -15 -33 -2 -16 -5 -30 -6 -30 -3 0 -18 -76 -26 -125 -5 -36
-5 -171 0 -196 2 -12 7 -39 10 -60 17 -105 89 -266 156 -348 145 -178 350
-298 550 -322 25 -3 54 -6 65 -8 19 -4 21 1 20 65 0 54 -3 69 -15 70 -41 2
-125 15 -125 19 0 1 -10 3 -23 6 -13 2 -36 11 -51 19 -16 8 -31 11 -35 8 -3
-4 -6 -1 -6 6 0 7 -4 10 -9 6 -5 -3 -16 2 -25 10 -8 9 -18 14 -20 13 -3 -2
-14 4 -24 12 -10 8 -23 16 -29 17 -22 5 -146 129 -182 183 -61 91 -110 207
-114 272 -1 15 -4 28 -7 28 -3 0 -5 44 -4 97 1 106 26 242 46 255 7 4 10 8 5
8 -9 0 39 98 61 123 8 9 11 17 7 17 -4 0 2 8 13 19 12 10 22 22 22 26 0 28
192 178 244 191 14 3 26 9 26 13 0 6 56 24 113 37 4 1 8 3 10 4 13 12 224 17
286 6 71 -12 213 -65 231 -85 7 -8 42 -30 60 -38 24 -10 153 -147 170 -179 8
-16 18 -31 21 -34 11 -9 56 -115 69 -161 10 -33 18 -45 29 -43 9 3 36 6 61 7
42 3 45 6 46 33 0 16 -8 49 -17 74 -39 102 -44 115 -49 120 -3 3 -18 25 -32
50 -14 25 -34 55 -45 67 -10 12 -29 36 -43 53 -67 86 -294 229 -389 245 -19 3
-39 9 -45 13 -6 4 -18 7 -26 7 -8 1 -40 5 -70 10 -78 11 -132 13 -151 4 -9 -5
-21 -3 -29 4 -7 7 -10 7 -7 1z"/>
<path d="M1535 1402 c-11 -2 -24 -8 -29 -13 -12 -11 -14 -99 -2 -99 5 0 3 -6
-3 -14 -6 -7 -9 -21 -5 -30 5 -14 -4 -21 -27 -18 -57 8 -80 8 -85 0 -3 -4 -9
-6 -14 -3 -4 3 -28 -4 -51 -15 -24 -11 -41 -20 -36 -20 4 0 -6 -12 -22 -27
-16 -16 -36 -48 -44 -72 -18 -54 -14 -178 6 -197 4 -4 7 -14 7 -22 0 -18 45
-60 84 -77 36 -16 113 -11 152 10 38 20 44 19 44 -5 0 -16 5 -19 28 -15 33 6
74 13 84 14 4 1 6 57 5 126 -1 69 1 125 5 125 4 0 5 6 3 13 -10 29 -13 67 -5
67 5 0 7 6 5 13 -10 29 -13 67 -5 67 5 0 7 6 5 13 -10 29 -13 67 -5 67 5 0 7
6 5 13 -10 28 -13 67 -5 67 4 0 6 8 3 18 -4 19 -42 24 -98 14z m-40 -379 c-1
-48 -3 -91 -4 -95 -1 -6 -40 -22 -51 -20 -3 0 -10 -4 -15 -8 -20 -16 -72 19
-80 53 -7 31 -9 72 -5 82 2 5 6 18 9 33 5 24 36 46 73 52 70 10 75 4 73 -97z"/>
<path d="M743 1222 c-38 -4 -39 -6 -17 -58 9 -21 18 -45 20 -53 7 -32 38 -116
43 -121 3 -3 6 -9 6 -15 0 -5 15 -49 33 -96 l34 -87 75 1 75 0 19 44 c10 25
17 49 14 53 -3 5 -1 10 5 12 6 2 12 12 15 23 2 11 27 80 54 154 28 74 50 135
49 137 -4 3 -66 6 -105 5 -24 -1 -33 -7 -39 -23 -4 -13 -6 -24 -5 -26 1 -1 -5
-17 -13 -36 -8 -19 -12 -37 -8 -40 3 -3 0 -6 -6 -6 -7 0 -11 -3 -10 -7 2 -13
-14 -67 -25 -80 -5 -7 -7 -13 -4 -13 3 0 1 -14 -5 -31 l-11 -31 -23 68 c-12
37 -20 72 -18 76 3 4 0 8 -7 8 -7 0 -9 3 -6 7 4 3 2 12 -3 18 -6 7 -11 24 -12
39 -1 14 -6 26 -9 26 -4 0 -9 10 -11 22 -3 25 -43 36 -105 30z"/>
<path d="M1773 1215 c-11 -8 -16 -32 -17 -83 0 -40 3 -72 7 -72 5 0 5 -5 2
-10 -8 -12 -9 -236 -1 -248 3 -5 31 -8 63 -8 l58 1 3 217 2 217 -51 -2 c-28
-1 -58 -6 -66 -12z"/>
<path d="M2023 1222 c-29 -2 -53 -5 -53 -7 0 -5 59 -163 75 -200 7 -16 25 -66
40 -110 41 -119 34 -112 114 -111 38 1 74 6 80 11 5 6 28 60 49 120 22 61 46
124 53 140 6 17 13 35 15 40 1 6 9 30 18 54 24 65 23 66 -44 65 -60 -1 -79 -9
-84 -35 -1 -8 -17 -61 -35 -119 -18 -58 -35 -111 -37 -119 -8 -24 -18 -1 -63
136 -30 91 -48 132 -59 135 -10 1 -41 2 -69 0z"/>
</g>
</svg>
