<svg height="442pt" viewBox="-56 0 442 442.00017" width="442pt" xmlns="http://www.w3.org/2000/svg"><path d="m323.96875 442c3.316406.019531 6.015625-2.65625 6.03125-5.972656v-351.910156c-.003906-1.550782-.609375-3.039063-1.691406-4.15625l-75.109375-78.132813c-1.136719-1.175781-2.703125-1.8359375-4.335938-1.828125h-242.832031c-3.3125-.0195312-6.015625 2.65625-6.03125 5.972656v430.054688c.015625 3.316406 2.71875 5.992187 6.03125 5.972656zm-68.96875-421.125 54.878906 57.125h-54.878906zm-243-8.875h231v72.117188c-.027344 1.566406.582031 3.074218 1.6875 4.183593 1.105469 1.105469 2.613281 1.71875 4.175781 1.699219h69.136719v340h-306zm0 0"/><path d="m265.699219 360h-207.214844c-3.3125 0-6 2.6875-6 6s2.6875 6 6 6h207.214844c3.316406 0 6-2.6875 6-6s-2.683594-6-6-6zm0 0"/><path d="m58.484375 309c-3.3125 0-6 2.6875-6 6s2.6875 6 6 6h120.042969c3.3125 0 6-2.6875 6-6s-2.6875-6-6-6zm0 0"/><path d="m79.226562 258.851562 14.160157-47.917968 92.832031 32.601562c.636719.230469 1.304688.351563 1.984375.355469 1.210937.003906 2.390625-.382813 3.367187-1.097656 1.5625-1.132813 2.46875-2.957031 2.429688-4.886719v-34.105469l16.015625-1.773437c10.863281-1.191406 19.0625-10.410156 18.984375-21.335938v-16.027344c.082031-10.929687-8.121094-20.148437-18.984375-21.34375l-16.015625-1.769531v-32.039062c.039062-1.929688-.867188-3.757813-2.429688-4.894531-1.601562-1.058594-3.625-1.257813-5.402343-.535157l-93.15625 32.917969h-47.5c-3.570313-.089844-7.023438 1.269531-9.570313 3.773438-2.546875 2.5-3.96875 5.929687-3.941406 9.5v46.871093c0 5.84375 3 10.832031 9 12.8125v47.355469c-.078125 1.515625.484375 2.996094 1.550781 4.078125 1.066407 1.078125 2.539063 1.664063 4.054688 1.609375h26.867187c2.632813.066406 4.984375-1.628906 5.753906-4.148438zm129.484376-103.597656c4.773437.535156 8.359374 4.605469 8.289062 9.410156v16.027344c.074219 4.804688-3.515625 8.878906-8.289062 9.414063l-14.710938 1.625v-38.109375zm-26.710938 74.191406-82-28.820312v-53.832031l82-28.820313zm-138-79.171874c0-.957032.558594-1.273438 1.515625-1.273438h42.484375v50h-42.484375c-.449219-.039062-.863281-.257812-1.148437-.609375-.285157-.347656-.417969-.796875-.367188-1.246094zm9 100.726562v-40h27.917969l-11.929688 40zm0 0"/><path d="m292 168h-44c-3.3125 0-6 2.6875-6 6s2.6875 6 6 6h44c3.3125 0 6-2.6875 6-6s-2.6875-6-6-6zm0 0"/><path d="m245.101562 151.992188c.503907 0 1.003907-.0625 1.492188-.1875l32.429688-8.316407c2.085937-.527343 3.726562-2.125 4.308593-4.195312.582031-2.070313.011719-4.289063-1.492187-5.824219s-3.714844-2.148438-5.796875-1.605469l-32.429688 8.316407c-2.929687.75-4.84375 3.5625-4.46875 6.5625.378907 3 2.929688 5.25 5.957031 5.25zm0 0"/><path d="m279.023438 205.039062-32.429688-8.316406c-3.210938-.820312-6.480469 1.113282-7.304688 4.324219-.824218 3.207031 1.113282 6.476563 4.320313 7.300781l32.433594 8.316406c3.203125.808594 6.457031-1.125 7.277343-4.328124.820313-3.199219-1.101562-6.460938-4.296874-7.296876zm0 0"/></svg>