<svg class="svg-icon" style="width: 1em; height: 1em;vertical-align: middle;fill: currentColor;overflow: hidden;" viewBox="0 0 1024 1024" version="1.1" xmlns="http://www.w3.org/2000/svg"><path d="M170.666667 426.666667v42.666666h-21.333334a21.333333 21.333333 0 0 1 0-42.666666z m-21.333334-128a21.333333 21.333333 0 0 0 0 42.666666h21.333334v-42.666666z m0 256a21.333333 21.333333 0 0 0 0 42.666666h21.333334v-42.666666z m0 256a21.333333 21.333333 0 0 0 0 42.666666h21.333334v-42.666666z m0-128a21.333333 21.333333 0 0 0 0 42.666666h21.333334v-42.666666z m0-512a21.333333 21.333333 0 0 0 0 42.666666h21.333334v-42.666666z m789.333334-80v842.666666a48.053333 48.053333 0 0 1-48 48H218.666667a48.053333 48.053333 0 0 1-48-48v-80h64a21.333333 21.333333 0 0 0 21.333333-21.333333 21.333333 21.333333 0 0 0-21.333333-21.333333h-64v-85.333334h64a21.333333 21.333333 0 0 0 21.333333-21.333333 21.333333 21.333333 0 0 0-21.333333-21.333333h-64V597.333333h64a21.333333 21.333333 0 0 0 21.333333-21.333333 21.333333 21.333333 0 0 0-21.333333-21.333333h-64V469.333333h64a21.333333 21.333333 0 0 0 21.333333-21.333333 21.333333 21.333333 0 0 0-21.333333-21.333333h-64V341.333333h64a21.333333 21.333333 0 0 0 21.333333-21.333333 21.333333 21.333333 0 0 0-21.333333-21.333333h-64V213.333333h64a21.333333 21.333333 0 0 0 21.333333-21.333333 21.333333 21.333333 0 0 0-21.333333-21.333333h-64V90.666667a48.053333 48.053333 0 0 1 48-48h672a48.053333 48.053333 0 0 1 48 48zM469.333333 384a85.333333 85.333333 0 1 0 85.333334-85.333333 85.333333 85.333333 0 0 0-85.333334 85.333333z m213.333334 266.666667a96 96 0 0 0-96-96h-64a96 96 0 0 0-96 96v16a16 16 0 0 0 16 16h224a16 16 0 0 0 16-16z" fill="#5C5C66" /></svg>