<svg id="Filled" height="512" viewBox="0 0 512 512" width="512" xmlns="http://www.w3.org/2000/svg"><rect fill="#e9eef2" height="448" rx="16" transform="matrix(-1 0 0 -1 512 510.964)" width="464" x="24" y="31.482"/><path d="m488 47.482v48h-464v-48a16 16 0 0 1 16-16h432a16 16 0 0 1 16 16z" fill="#c3c6c7"/><path d="m72 144h224v128h-224z" fill="#2d85cc"/><path d="m264 272h-96l48-48z" fill="#75ab7d"/><path d="m200 272h-96l48-64z" fill="#88c791"/><path d="m344 336h32v32h-32z" fill="#2d85cc"/><path d="m344 400h32v32h-32z" fill="#2d85cc"/><path d="m472 24h-432a24.028 24.028 0 0 0 -24 24v416a24.028 24.028 0 0 0 24 24h432a24.028 24.028 0 0 0 24-24v-416a24.028 24.028 0 0 0 -24-24zm-432 16h432a8.009 8.009 0 0 1 8 8v40h-448v-40a8.009 8.009 0 0 1 8-8zm432 432h-432a8.009 8.009 0 0 1 -8-8v-360h448v360a8.009 8.009 0 0 1 -8 8z"/><circle cx="120" cy="64" r="8"/><circle cx="88" cy="64" r="8"/><circle cx="56" cy="64" r="8"/><path d="m72 312h64a8 8 0 0 0 0-16h-64a8 8 0 0 0 0 16z"/><path d="m72 344h96a8 8 0 0 0 0-16h-96a8 8 0 0 0 0 16z"/><path d="m72 376h48a8 8 0 0 0 0-16h-48a8 8 0 0 0 0 16z"/><path d="m72 408h80a8 8 0 0 0 0-16h-80a8 8 0 0 0 0 16z"/><path d="m296 424h-224a8 8 0 0 0 0 16h224a8 8 0 0 0 0-16z"/><path d="m296 328h-96a8 8 0 0 0 0 16h96a8 8 0 0 0 0-16z"/><path d="m144 368a8 8 0 0 0 8 8h80a8 8 0 0 0 0-16h-80a8 8 0 0 0 -8 8z"/><path d="m296 360h-32a8 8 0 0 0 0 16h32a8 8 0 0 0 0-16z"/><path d="m296 392h-112a8 8 0 0 0 0 16h112a8 8 0 0 0 0-16z"/><path d="m296 136h-224a8 8 0 0 0 -8 8v128a8 8 0 0 0 8 8h224a8 8 0 0 0 8-8v-128a8 8 0 0 0 -8-8zm-99.151 118.465 19.151-19.152 28.686 28.687h-40.686zm-12.849 9.535h-64l32-42.667zm104 0h-20.686l-45.657-45.657a8 8 0 0 0 -11.314 0l-23.192 23.192-28.751-38.335a8 8 0 0 0 -12.8 0l-45.6 60.8h-20v-112h208z"/><circle cx="192" cy="192" r="8"/><path d="m344 152h32a8 8 0 0 0 0-16h-32a8 8 0 0 0 0 16z"/><path d="m440 168h-96a8 8 0 0 0 0 16h96a8 8 0 0 0 0-16z"/><path d="m344 216h32a8 8 0 0 0 0-16h-32a8 8 0 0 0 0 16z"/><path d="m440 232h-64a8 8 0 0 0 0 16h64a8 8 0 0 0 0-16z"/><path d="m376 328h-32a8 8 0 0 0 -8 8v32a8 8 0 0 0 8 8h32a8 8 0 0 0 8-8v-32a8 8 0 0 0 -8-8zm-8 32h-16v-16h16z"/><path d="m440 328h-32a8 8 0 0 0 0 16h32a8 8 0 0 0 0-16z"/><path d="m376 392h-32a8 8 0 0 0 -8 8v32a8 8 0 0 0 8 8h32a8 8 0 0 0 8-8v-32a8 8 0 0 0 -8-8zm-8 32h-16v-16h16z"/><path d="m440 424h-32a8 8 0 0 0 0 16h32a8 8 0 0 0 0-16z"/><path d="m440 392h-32a8 8 0 0 0 0 16h32a8 8 0 0 0 0-16z"/><path d="m376 296h-32a8 8 0 0 0 0 16h32a8 8 0 0 0 0-16z"/><path d="m440 360h-32a8 8 0 0 0 0 16h32a8 8 0 0 0 0-16z"/><circle cx="344" cy="240" r="8"/><path d="m344 280h64a8 8 0 0 0 0-16h-64a8 8 0 0 0 0 16z"/></svg>