<?xml version="1.0" encoding="UTF-8"?>
<svg width="23px" height="24px" viewBox="0 0 23 24" version="1.1" xmlns="http://www.w3.org/2000/svg" xmlns:xlink="http://www.w3.org/1999/xlink">
    <title>SMALL/icon-menu</title>
    <g id="Symbols" stroke="none" stroke-width="1" fill="none" fill-rule="evenodd">
        <g id="SMALL/icon-menu" transform="translate(0.000000, 0.500000)">
            <g id="_SMALL/_icons/icon-menu" transform="translate(2.000000, 0.000000)" stroke="#002857" stroke-linejoin="round">
                <line x1="0" y1="4.5" x2="18" y2="4.5" id="Path"></line>
                <line x1="0" y1="0.5" x2="18" y2="0.5" id="Path"></line>
                <line x1="0" y1="8.5" x2="18" y2="8.5" id="Path"></line>
            </g>
            <path d="M1.571,21.5 L1.571,18.251 C1.571,17.987 1.5605,17.696 1.5395,17.378 C1.5185,17.06 1.499,16.769 1.481,16.505 L1.481,16.505 L1.517,16.505 L1.985,17.846 L3.101,20.906 L3.596,20.906 L4.712,17.846 L5.18,16.505 L5.216,16.505 C5.198,16.769 5.177,17.06 5.153,17.378 C5.129,17.696 5.117,17.987 5.117,18.251 L5.117,18.251 L5.117,21.5 L5.819,21.5 L5.819,15.596 L4.91,15.596 L3.794,18.746 C3.722,18.95 3.6545,19.1555 3.5915,19.3625 L3.493625,19.671875 L3.493625,19.671875 L3.389,19.979 L3.353,19.979 C3.281,19.775 3.2105,19.5695 3.1415,19.3625 L3.036875,19.053125 L3.036875,19.053125 L2.93,18.746 L1.796,15.596 L0.896,15.596 L0.896,21.5 L1.571,21.5 Z M10.931,21.5 L10.931,20.861 L8.186,20.861 L8.186,18.719 L10.427,18.719 L10.427,18.08 L8.186,18.08 L8.186,16.226 L10.841,16.226 L10.841,15.596 L7.439,15.596 L7.439,21.5 L10.931,21.5 Z M12.893,21.5 L12.893,18.413 C12.893,18.101 12.8825,17.7905 12.8615,17.4815 C12.8405,17.1725 12.818,16.868 12.794,16.568 L12.794,16.568 L12.83,16.568 L13.469,17.783 L15.611,21.5 L16.385,21.5 L16.385,15.596 L15.674,15.596 L15.674,18.647 C15.674,18.959 15.6845,19.2755 15.7055,19.5965 C15.7265,19.9175 15.746,20.228 15.764,20.528 L15.764,20.528 L15.728,20.528 L15.089,19.304 L12.956,15.596 L12.182,15.596 L12.182,21.5 L12.893,21.5 Z M19.166,15.065 C19.298,15.065 19.4045,15.023 19.4855,14.939 C19.5665,14.855 19.607,14.75 19.607,14.624 C19.607,14.492 19.5665,14.3855 19.4855,14.3045 C19.4045,14.2235 19.298,14.183 19.166,14.183 C19.04,14.183 18.935,14.2235 18.851,14.3045 C18.767,14.3855 18.725,14.492 18.725,14.624 C18.725,14.75 18.767,14.855 18.851,14.939 C18.935,15.023 19.04,15.065 19.166,15.065 Z M21.02,15.065 C21.146,15.065 21.251,15.023 21.335,14.939 C21.419,14.855 21.461,14.75 21.461,14.624 C21.461,14.492 21.419,14.3855 21.335,14.3045 C21.251,14.2235 21.146,14.183 21.02,14.183 C20.888,14.183 20.7815,14.2235 20.7005,14.3045 C20.6195,14.3855 20.579,14.492 20.579,14.624 C20.579,14.75 20.6195,14.855 20.7005,14.939 C20.7815,15.023 20.888,15.065 21.02,15.065 Z M20.102,21.608 C20.402,21.608 20.681,21.5645 20.939,21.4775 C21.197,21.3905 21.4205,21.2465 21.6095,21.0455 C21.7985,20.8445 21.947,20.582 22.055,20.258 C22.163,19.934 22.217,19.535 22.217,19.061 L22.217,19.061 L22.217,15.596 L21.497,15.596 L21.497,19.079 C21.497,19.433 21.461,19.73 21.389,19.97 C21.317,20.21 21.218,20.402 21.092,20.546 C20.966,20.69 20.819,20.7935 20.651,20.8565 C20.483,20.9195 20.3,20.951 20.102,20.951 C19.91,20.951 19.73,20.9195 19.562,20.8565 C19.394,20.7935 19.2485,20.69 19.1255,20.546 C19.0025,20.402 18.905,20.21 18.833,19.97 C18.761,19.73 18.725,19.433 18.725,19.079 L18.725,19.079 L18.725,15.596 L17.978,15.596 L17.978,19.061 C17.978,19.535 18.032,19.934 18.14,20.258 C18.248,20.582 18.3965,20.8445 18.5855,21.0455 C18.7745,21.2465 18.9995,21.3905 19.2605,21.4775 C19.5215,21.5645 19.802,21.608 20.102,21.608 Z" id="MENÜ" fill="#002857" fill-rule="nonzero"></path>
        </g>
    </g>
</svg>