<?xml version="1.0" encoding="UTF-8"?>
<svg width="23px" height="24px" viewBox="0 0 23 24" version="1.1" xmlns="http://www.w3.org/2000/svg" xmlns:xlink="http://www.w3.org/1999/xlink">
    <title>MOBILE/icon-menu-close</title>
    <g id="Screendesign-SMALL" stroke="none" stroke-width="1" fill="none" fill-rule="evenodd">
        <g id="S-Startseite-Menu" transform="translate(-374.000000, -23.000000)">
            <g id="_SMALL/_ATOMS/navigation" transform="translate(298.000000, 21.000000)">
                <g id="MOBILE/icon-menu-close" transform="translate(76.896000, 2.489592)">
                    <g id="_SMALL/_icons/icon-menu" transform="translate(4.093592, 0.000000)" stroke="#002857" stroke-linejoin="round" stroke-width="0.888888889">
                        <path d="M0.353553391,11.6672619 L11.6672619,0.353553391 M0.353553391,0.353553391 L11.6672619,11.6672619" id="Path-Copy-2"></path>
                    </g>
                    <path d="M0.675,22.5104076 L0.675,19.2614076 C0.675,18.9974076 0.6645,18.7064076 0.6435,18.3884076 C0.6225,18.0704076 0.603,17.7794076 0.585,17.5154076 L0.585,17.5154076 L0.621,17.5154076 L1.089,18.8564076 L2.205,21.9164076 L2.7,21.9164076 L3.816,18.8564076 L4.284,17.5154076 L4.32,17.5154076 C4.302,17.7794076 4.281,18.0704076 4.257,18.3884076 C4.233,18.7064076 4.221,18.9974076 4.221,19.2614076 L4.221,19.2614076 L4.221,22.5104076 L4.923,22.5104076 L4.923,16.6064076 L4.014,16.6064076 L2.898,19.7564076 C2.826,19.9604076 2.7585,20.1659076 2.6955,20.3729076 L2.597625,20.6822826 L2.597625,20.6822826 L2.493,20.9894076 L2.457,20.9894076 C2.385,20.7854076 2.3145,20.5799076 2.2455,20.3729076 L2.140875,20.0635326 L2.140875,20.0635326 L2.034,19.7564076 L0.9,16.6064076 L0,16.6064076 L0,22.5104076 L0.675,22.5104076 Z M10.035,22.5104076 L10.035,21.8714076 L7.29,21.8714076 L7.29,19.7294076 L9.531,19.7294076 L9.531,19.0904076 L7.29,19.0904076 L7.29,17.2364076 L9.945,17.2364076 L9.945,16.6064076 L6.543,16.6064076 L6.543,22.5104076 L10.035,22.5104076 Z M11.997,22.5104076 L11.997,19.4234076 C11.997,19.1114076 11.9865,18.8009076 11.9655,18.4919076 C11.9445,18.1829076 11.922,17.8784076 11.898,17.5784076 L11.898,17.5784076 L11.934,17.5784076 L12.573,18.7934076 L14.715,22.5104076 L15.489,22.5104076 L15.489,16.6064076 L14.778,16.6064076 L14.778,19.6574076 C14.778,19.9694076 14.7885,20.2859076 14.8095,20.6069076 C14.8305,20.9279076 14.85,21.2384076 14.868,21.5384076 L14.868,21.5384076 L14.832,21.5384076 L14.193,20.3144076 L12.06,16.6064076 L11.286,16.6064076 L11.286,22.5104076 L11.997,22.5104076 Z M18.27,16.0754076 C18.402,16.0754076 18.5085,16.0334076 18.5895,15.9494076 C18.6705,15.8654076 18.711,15.7604076 18.711,15.6344076 C18.711,15.5024076 18.6705,15.3959076 18.5895,15.3149076 C18.5085,15.2339076 18.402,15.1934076 18.27,15.1934076 C18.144,15.1934076 18.039,15.2339076 17.955,15.3149076 C17.871,15.3959076 17.829,15.5024076 17.829,15.6344076 C17.829,15.7604076 17.871,15.8654076 17.955,15.9494076 C18.039,16.0334076 18.144,16.0754076 18.27,16.0754076 Z M20.124,16.0754076 C20.25,16.0754076 20.355,16.0334076 20.439,15.9494076 C20.523,15.8654076 20.565,15.7604076 20.565,15.6344076 C20.565,15.5024076 20.523,15.3959076 20.439,15.3149076 C20.355,15.2339076 20.25,15.1934076 20.124,15.1934076 C19.992,15.1934076 19.8855,15.2339076 19.8045,15.3149076 C19.7235,15.3959076 19.683,15.5024076 19.683,15.6344076 C19.683,15.7604076 19.7235,15.8654076 19.8045,15.9494076 C19.8855,16.0334076 19.992,16.0754076 20.124,16.0754076 Z M19.206,22.6184076 C19.506,22.6184076 19.785,22.5749076 20.043,22.4879076 C20.301,22.4009076 20.5245,22.2569076 20.7135,22.0559076 C20.9025,21.8549076 21.051,21.5924076 21.159,21.2684076 C21.267,20.9444076 21.321,20.5454076 21.321,20.0714076 L21.321,20.0714076 L21.321,16.6064076 L20.601,16.6064076 L20.601,20.0894076 C20.601,20.4434076 20.565,20.7404076 20.493,20.9804076 C20.421,21.2204076 20.322,21.4124076 20.196,21.5564076 C20.07,21.7004076 19.923,21.8039076 19.755,21.8669076 C19.587,21.9299076 19.404,21.9614076 19.206,21.9614076 C19.014,21.9614076 18.834,21.9299076 18.666,21.8669076 C18.498,21.8039076 18.3525,21.7004076 18.2295,21.5564076 C18.1065,21.4124076 18.009,21.2204076 17.937,20.9804076 C17.865,20.7404076 17.829,20.4434076 17.829,20.0894076 L17.829,20.0894076 L17.829,16.6064076 L17.082,16.6064076 L17.082,20.0714076 C17.082,20.5454076 17.136,20.9444076 17.244,21.2684076 C17.352,21.5924076 17.5005,21.8549076 17.6895,22.0559076 C17.8785,22.2569076 18.1035,22.4009076 18.3645,22.4879076 C18.6255,22.5749076 18.906,22.6184076 19.206,22.6184076 Z" id="MENÜ" fill="#002857" fill-rule="nonzero"></path>
                </g>
            </g>
        </g>
    </g>
</svg>