<?xml version="1.0" encoding="UTF-8"?>
<svg width="44px" height="45px" viewBox="0 0 44 45" version="1.1" xmlns="http://www.w3.org/2000/svg" xmlns:xlink="http://www.w3.org/1999/xlink">
    <title>MEDIUM/icon-menu-close</title>
    <g id="Screendesign-MEDIUM" stroke="none" stroke-width="1" fill="none" fill-rule="evenodd">
        <g id="MEDIUM/icon-menu-close" transform="translate(0.000000, 0.500000)">
            <rect id="Rectangle" fill="#002857" x="0" y="0" width="44" height="44" rx="2"></rect>
            <g id="_SMALL/_icons/icon-menu" transform="translate(15.282486, 10.782486)" stroke="#FFFFFF" stroke-linejoin="round">
                <line x1="-2.28248558" y1="6.71751442" x2="15.7175144" y2="6.71751442" id="Path" transform="translate(6.717514, 6.717514) rotate(45.000000) translate(-6.717514, -6.717514) "></line>
                <line x1="-2.28248558" y1="6.71751442" x2="15.7175144" y2="6.71751442" id="Path-Copy" transform="translate(6.717514, 6.717514) rotate(-45.000000) translate(-6.717514, -6.717514) "></line>
            </g>
            <path d="M12.571,34.5 L12.571,31.251 C12.571,30.987 12.5605,30.696 12.5395,30.378 C12.5185,30.06 12.499,29.769 12.481,29.505 L12.481,29.505 L12.517,29.505 L12.985,30.846 L14.101,33.906 L14.596,33.906 L15.712,30.846 L16.18,29.505 L16.216,29.505 C16.198,29.769 16.177,30.06 16.153,30.378 C16.129,30.696 16.117,30.987 16.117,31.251 L16.117,31.251 L16.117,34.5 L16.819,34.5 L16.819,28.596 L15.91,28.596 L14.794,31.746 C14.722,31.95 14.6545,32.1555 14.5915,32.3625 L14.493625,32.671875 L14.493625,32.671875 L14.389,32.979 L14.353,32.979 C14.281,32.775 14.2105,32.5695 14.1415,32.3625 L14.036875,32.053125 L14.036875,32.053125 L13.93,31.746 L12.796,28.596 L11.896,28.596 L11.896,34.5 L12.571,34.5 Z M21.931,34.5 L21.931,33.861 L19.186,33.861 L19.186,31.719 L21.427,31.719 L21.427,31.08 L19.186,31.08 L19.186,29.226 L21.841,29.226 L21.841,28.596 L18.439,28.596 L18.439,34.5 L21.931,34.5 Z M23.893,34.5 L23.893,31.413 C23.893,31.101 23.8825,30.7905 23.8615,30.4815 C23.8405,30.1725 23.818,29.868 23.794,29.568 L23.794,29.568 L23.83,29.568 L24.469,30.783 L26.611,34.5 L27.385,34.5 L27.385,28.596 L26.674,28.596 L26.674,31.647 C26.674,31.959 26.6845,32.2755 26.7055,32.5965 C26.7265,32.9175 26.746,33.228 26.764,33.528 L26.764,33.528 L26.728,33.528 L26.089,32.304 L23.956,28.596 L23.182,28.596 L23.182,34.5 L23.893,34.5 Z M30.166,28.065 C30.298,28.065 30.4045,28.023 30.4855,27.939 C30.5665,27.855 30.607,27.75 30.607,27.624 C30.607,27.492 30.5665,27.3855 30.4855,27.3045 C30.4045,27.2235 30.298,27.183 30.166,27.183 C30.04,27.183 29.935,27.2235 29.851,27.3045 C29.767,27.3855 29.725,27.492 29.725,27.624 C29.725,27.75 29.767,27.855 29.851,27.939 C29.935,28.023 30.04,28.065 30.166,28.065 Z M32.02,28.065 C32.146,28.065 32.251,28.023 32.335,27.939 C32.419,27.855 32.461,27.75 32.461,27.624 C32.461,27.492 32.419,27.3855 32.335,27.3045 C32.251,27.2235 32.146,27.183 32.02,27.183 C31.888,27.183 31.7815,27.2235 31.7005,27.3045 C31.6195,27.3855 31.579,27.492 31.579,27.624 C31.579,27.75 31.6195,27.855 31.7005,27.939 C31.7815,28.023 31.888,28.065 32.02,28.065 Z M31.102,34.608 C31.402,34.608 31.681,34.5645 31.939,34.4775 C32.197,34.3905 32.4205,34.2465 32.6095,34.0455 C32.7985,33.8445 32.947,33.582 33.055,33.258 C33.163,32.934 33.217,32.535 33.217,32.061 L33.217,32.061 L33.217,28.596 L32.497,28.596 L32.497,32.079 C32.497,32.433 32.461,32.73 32.389,32.97 C32.317,33.21 32.218,33.402 32.092,33.546 C31.966,33.69 31.819,33.7935 31.651,33.8565 C31.483,33.9195 31.3,33.951 31.102,33.951 C30.91,33.951 30.73,33.9195 30.562,33.8565 C30.394,33.7935 30.2485,33.69 30.1255,33.546 C30.0025,33.402 29.905,33.21 29.833,32.97 C29.761,32.73 29.725,32.433 29.725,32.079 L29.725,32.079 L29.725,28.596 L28.978,28.596 L28.978,32.061 C28.978,32.535 29.032,32.934 29.14,33.258 C29.248,33.582 29.3965,33.8445 29.5855,34.0455 C29.7745,34.2465 29.9995,34.3905 30.2605,34.4775 C30.5215,34.5645 30.802,34.608 31.102,34.608 Z" id="MENÜ" fill="#FFFFFF" fill-rule="nonzero"></path>
        </g>
    </g>
</svg>