<?xml version="1.0" encoding="UTF-8"?>
<svg width="104px" height="104px" viewBox="0 0 104 104" version="1.1" xmlns="http://www.w3.org/2000/svg" xmlns:xlink="http://www.w3.org/1999/xlink">
    <title>icons/chatbot</title>
    <defs>
        <circle id="path-1" cx="50" cy="50" r="50"></circle>
    </defs>
    <g id="Screendesign" stroke="none" stroke-width="1" fill="none" fill-rule="evenodd">
        <g id="icons/chatbot" transform="translate(2.000000, 2.000000)">
            <mask id="mask-2" fill="white">
                <use xlink:href="#path-1"></use>
            </mask>
            <use id="mask" stroke="#E8E8E8" stroke-width="3" fill="#008FD9" xlink:href="#path-1"></use>
            <path d="M56.0172414,38.0689655 C57.0662015,38.0689655 57.6203101,38.2914176 57.9737566,38.6448641 C58.3272031,38.9983106 58.5496552,39.5524192 58.5496552,40.6013793 L58.5496552,40.6013793 L58.5496552,51.8110345 C58.5496552,52.8599946 58.3272031,53.4141032 57.9737566,53.7675497 C57.6203101,54.1209962 57.0662015,54.3434483 56.0172414,54.3434483 L56.0172414,54.3434483 L41.0665715,54.3434483 L35.0689655,58.0164008 L35.0689655,40.6013793 C35.0689655,39.5524192 35.2914176,38.9983106 35.6448641,38.6448641 C35.9983106,38.2914176 36.5524192,38.0689655 37.6013793,38.0689655 L37.6013793,38.0689655 Z" id="Path-Copy" stroke="#FFFFFF" stroke-width="1.86206897" stroke-linecap="round" mask="url(#mask-2)" transform="translate(46.809310, 47.677241) scale(-1, 1) translate(-46.809310, -47.677241) "></path>
            <path d="M65.3275862,47.3793103 C66.3765463,47.3793103 66.9306549,47.6017624 67.2841014,47.9552089 C67.637548,48.3086554 67.86,48.862764 67.86,49.9117241 L67.86,49.9117241 L67.86,61.1213793 C67.86,62.1703394 67.637548,62.724448 67.2841014,63.0778945 C66.9306549,63.4313411 66.3765463,63.6537931 65.3275862,63.6537931 L65.3275862,63.6537931 L50.3769163,63.6537931 L44.3793103,67.3267456 L44.3793103,49.9117241 C44.3793103,48.862764 44.6017624,48.3086554 44.9552089,47.9552089 C45.3086554,47.6017624 45.862764,47.3793103 46.9117241,47.3793103 L46.9117241,47.3793103 Z" id="Path" stroke="#FFFFFF" stroke-width="1.86206897" fill="#008FD9" stroke-linecap="round" mask="url(#mask-2)"></path>
        </g>
    </g>
</svg>