<?xml version="1.0" encoding="UTF-8"?>
<svg width="50px" height="50px" viewBox="0 0 50 50" version="1.1" xmlns="http://www.w3.org/2000/svg" xmlns:xlink="http://www.w3.org/1999/xlink">
    <title>icons/facebook</title>
    <g id="Symbols" stroke="none" stroke-width="1" fill="none" fill-rule="evenodd">
        <g id="_MOLECULES/slider-some" transform="translate(-398.000000, 0.000000)" fill="#008FD9" fill-rule="nonzero">
            <g id="Group-2" transform="translate(392.000000, 0.000000)">
                <g id="icons/facebook" transform="translate(6.000000, 0.000000)">
                    <path d="M50,2.75669643 L50,47.2321429 C50,48.7611607 48.7611607,49.9888393 47.2433036,49.9888393 L34.4977679,49.9888393 L34.4977679,30.6361607 L40.9933036,30.6361607 L41.9642857,23.0915179 L34.4866071,23.0915179 L34.4866071,18.2700893 C34.4866071,16.0825893 35.0892857,14.5982143 38.2254464,14.5982143 L42.2209821,14.5982143 L42.2209821,7.84598214 C41.5290179,7.75669643 39.1629464,7.54464286 36.3950893,7.54464286 C30.6361607,7.54464286 26.6852679,11.0602679 26.6852679,17.5223214 L26.6852679,23.0915179 L20.1674107,23.0915179 L20.1674107,30.6361607 L26.6852679,30.6361607 L26.6852679,50 L2.75669643,50 C1.23883929,50 0,48.7611607 0,47.2433036 L0,2.75669643 C0,1.23883929 1.23883929,0 2.75669643,0 L47.2321429,0 C48.7611607,0 50,1.23883929 50,2.75669643 Z" id="Path"></path>
                </g>
            </g>
        </g>
    </g>
</svg>