<?xml version="1.0" encoding="UTF-8" standalone="no"?>
<!DOCTYPE svg PUBLIC "-//W3C//DTD SVG 1.1//EN" "http://www.w3.org/Graphics/SVG/1.1/DTD/svg11.dtd">
<svg version="1.1" xmlns="http://www.w3.org/2000/svg" xmlns:xlink="http://www.w3.org/1999/xlink" preserveAspectRatio="xMidYMid meet" viewBox="0 0 190 190" width="190" height="190"><defs><path d="M147.94 0.58L169.03 0.58L169.03 21.67L147.94 21.67L147.94 0.58Z" id="b29xDPaaE"></path><path d="M147.94 21.67L169.03 21.67L169.03 42.77L147.94 42.77L147.94 21.67Z" id="ev9g2nNrB"></path><path d="M105.75 21.67L126.84 21.67L126.84 42.77L105.75 42.77L105.75 21.67Z" id="f7U5ps2KD"></path><path d="M126.84 42.77L147.94 42.77L147.94 63.86L126.84 63.86L126.84 42.77Z" id="botIrC4jy"></path><path d="M169.03 42.77L190.12 42.77L190.12 63.86L169.03 63.86L169.03 42.77Z" id="a1pNEOeGQj"></path><path d="M169.03 63.86L190.13 63.86L190.13 84.95L169.03 84.95L169.03 63.86Z" id="d10L7icgow"></path><path d="M169.03 84.95L190.13 84.95L190.13 106.05L169.03 106.05L169.03 84.95Z" id="aImevrLDX"></path><path d="M147.94 63.86L169.03 63.86L169.03 84.95L147.94 84.95L147.94 63.86Z" id="f1aWFh1Aha"></path><path d="M105.75 63.86L126.84 63.86L126.84 84.95L105.75 84.95L105.75 63.86Z" id="cthWovvD"></path><path d="M126.84 84.95L147.94 84.95L147.94 106.05L126.84 106.05L126.84 84.95Z" id="d1BSuRLdwY"></path><path d="M84.66 84.95L105.75 84.95L105.75 106.05L84.66 106.05L84.66 84.95Z" id="bVbwvEaVU"></path><path d="M147.94 106.05L169.03 106.05L169.03 127.14L147.94 127.14L147.94 106.05Z" id="cglDHgWH"></path><path d="M105.75 106.05L126.84 106.05L126.84 127.14L105.75 127.14L105.75 106.05Z" id="d1EuyhLYU6"></path><path d="M169.03 127.14L190.13 127.14L190.13 148.23L169.03 148.23L169.03 127.14Z" id="bV9SJDqaV"></path><path d="M126.84 127.14L147.94 127.14L147.94 148.23L126.84 148.23L126.84 127.14Z" id="f10hsRTDde"></path><path d="M105.75 127.14L126.84 127.14L126.84 148.23L105.75 148.23L105.75 127.14Z" id="b1zpcbUdHj"></path><path d="" id="c3ghRLzBZg"></path><path d="M84.66 127.14L105.75 127.14L105.75 148.23L84.66 148.23L84.66 127.14Z" id="b45VjzaF"></path><path d="M63.56 148.23L84.66 148.23L84.66 169.33L63.56 169.33L63.56 148.23Z" id="erLNQ4Flf"></path><path d="M42.47 127.14L63.56 127.14L63.56 148.23L42.47 148.23L42.47 127.14Z" id="b1CYH6XxBU"></path><path d="M105.75 148.23L126.84 148.23L126.84 169.33L105.75 169.33L105.75 148.23Z" id="bGgtMfEq3"></path><path d="M126.84 148.23L147.94 148.23L147.94 169.33L126.84 169.33L126.84 148.23Z" id="d1yJPnYV6n"></path><path d="M147.94 148.23L169.03 148.23L169.03 169.33L147.94 169.33L147.94 148.23Z" id="bYp6aMeIG"></path><path d="M169.03 169.33L190.13 169.33L190.13 190.42L169.03 190.42L169.03 169.33Z" id="b1SmjehOi0"></path><path d="M126.84 169.33L147.94 169.33L147.94 190.42L126.84 190.42L126.84 169.33Z" id="a7gMffClfl"></path><path d="M84.66 169.33L105.75 169.33L105.75 190.42L84.66 190.42L84.66 169.33Z" id="f1BPo1cB2r"></path><path d="M63.56 169.33L84.66 169.33L84.66 190.42L63.56 190.42L63.56 169.33Z" id="bKBtLIFhQ"></path><path d="M42.47 169.33L63.56 169.33L63.56 190.42L42.47 190.42L42.47 169.33Z" id="c3DSYoX1fs"></path><path d="M0.28 169.33L21.38 169.33L21.38 190.42L0.28 190.42L0.28 169.33Z" id="a2L2ReRyVf"></path><path d="M21.38 148.23L42.47 148.23L42.47 169.33L21.38 169.33L21.38 148.23Z" id="d192jKrDF"></path></defs><g><g><g><use xlink:href="#b29xDPaaE" opacity="0.5" fill="#008fd9" fill-opacity="1"></use></g><g><use xlink:href="#ev9g2nNrB" opacity="1" fill="#008fd9" fill-opacity="1"></use></g><g><use xlink:href="#f7U5ps2KD" opacity="1" fill="#008fd9" fill-opacity="1"></use></g><g><use xlink:href="#botIrC4jy" opacity="0.7" fill="#008fd9" fill-opacity="1"></use></g><g><use xlink:href="#a1pNEOeGQj" opacity="0.3" fill="#008fd9" fill-opacity="1"></use></g><g><use xlink:href="#d10L7icgow" opacity="1" fill="#008fd9" fill-opacity="1"></use></g><g><use xlink:href="#aImevrLDX" opacity="0.3" fill="#008fd9" fill-opacity="1"></use></g><g><use xlink:href="#f1aWFh1Aha" opacity="0.3" fill="#008fd9" fill-opacity="1"></use></g><g><use xlink:href="#cthWovvD" opacity="1" fill="#008fd9" fill-opacity="1"></use></g><g><use xlink:href="#d1BSuRLdwY" opacity="1" fill="#008fd9" fill-opacity="1"></use></g><g><use xlink:href="#bVbwvEaVU" opacity="0.3" fill="#008fd9" fill-opacity="1"></use></g><g><use xlink:href="#cglDHgWH" opacity="0.3" fill="#008fd9" fill-opacity="1"></use></g><g><use xlink:href="#d1EuyhLYU6" opacity="0.7" fill="#008fd9" fill-opacity="1"></use></g><g><use xlink:href="#bV9SJDqaV" opacity="1" fill="#008fd9" fill-opacity="1"></use></g><g><use xlink:href="#f10hsRTDde" opacity="1" fill="#008fd9" fill-opacity="1"></use></g><g><use xlink:href="#b1zpcbUdHj" opacity="0.3" fill="#008fd9" fill-opacity="1"></use></g><g><g><use xlink:href="#c3ghRLzBZg" opacity="1" fill-opacity="0" stroke="#000000" stroke-width="1" stroke-opacity="1"></use></g></g><g><use xlink:href="#b45VjzaF" opacity="1" fill="#7ec5ea" fill-opacity="1"></use></g><g><use xlink:href="#erLNQ4Flf" opacity="1" fill="#008fd9" fill-opacity="1"></use></g><g><use xlink:href="#b1CYH6XxBU" opacity="1" fill="#008fd9" fill-opacity="1"></use></g><g><use xlink:href="#bGgtMfEq3" opacity="1" fill="#97ccea" fill-opacity="1"></use></g><g><use xlink:href="#d1yJPnYV6n" opacity="0.2" fill="#008fd9" fill-opacity="1"></use></g><g><use xlink:href="#bYp6aMeIG" opacity="1" fill="#008fd9" fill-opacity="1"></use></g><g><use xlink:href="#b1SmjehOi0" opacity="1" fill="#008fd9" fill-opacity="1"></use></g><g><use xlink:href="#a7gMffClfl" opacity="1" fill="#97ccea" fill-opacity="1"></use></g><g><use xlink:href="#f1BPo1cB2r" opacity="1" fill="#008fd9" fill-opacity="1"></use></g><g><use xlink:href="#bKBtLIFhQ" opacity="1" fill="#7ec5ea" fill-opacity="1"></use></g><g><use xlink:href="#c3DSYoX1fs" opacity="0.7" fill="#008fd9" fill-opacity="1"></use></g><g><use xlink:href="#a2L2ReRyVf" opacity="1" fill="#008fd9" fill-opacity="1"></use></g><g><use xlink:href="#d192jKrDF" opacity="0.3" fill="#008fd9" fill-opacity="1"></use></g></g></g></svg>