<?xml version="1.0" encoding="utf-8"?>
<!-- Generator: Adobe Illustrator 16.0.3, SVG Export Plug-In . SVG Version: 6.00 Build 0)  -->
<!DOCTYPE svg PUBLIC "-//W3C//DTD SVG 1.1//EN" "http://www.w3.org/Graphics/SVG/1.1/DTD/svg11.dtd">
<svg version="1.1" id="Layer_1" xmlns="http://www.w3.org/2000/svg" xmlns:xlink="http://www.w3.org/1999/xlink" x="0px" y="0px"
	 width="53px" height="53px" viewBox="0 0 53 53" enable-background="new 0 0 53 53" xml:space="preserve">
<path fill="#555D6A" d="M26.499,0.25C12.009,0.25,0.25,12.01,0.25,26.5s11.759,26.25,26.25,26.25
	c14.489,0,26.251-11.76,26.251-26.25S40.988,0.25,26.499,0.25z M35.933,27.301l-13.084,9.813c-0.172,0.129-0.383,0.199-0.6,0.199
	c-0.553,0-1-0.447-1-1V16.688c0-0.216,0.07-0.426,0.2-0.6c0.331-0.441,0.958-0.531,1.399-0.199l13.084,9.813
	c0.076,0.057,0.143,0.123,0.201,0.199C36.464,26.342,36.374,26.969,35.933,27.301z"/>
</svg>
