<?xml version="1.0" encoding="UTF-8"?>
<svg width="37px" height="48px" viewBox="0 0 37 48" version="1.1" xmlns="http://www.w3.org/2000/svg" xmlns:xlink="http://www.w3.org/1999/xlink">
    <title>icon-pdf-download</title>
    <g id="Screendesign" stroke="none" stroke-width="1" fill="none" fill-rule="evenodd">
        <g id="L-Newsroom-Presse-News" transform="translate(-1081.000000, -295.000000)" fill="#002857">
            <g id="SIDEBAR" transform="translate(1065.000000, 262.000000)">
                <g id="Group-5" transform="translate(16.000000, 33.000000)">
                    <path d="M28.591472,4.76063633e-13 L36.374002,7.79275 L36.374002,47.754994 L4.76063633e-13,47.754994 L4.76063633e-13,4.76063633e-13 L28.591472,4.76063633e-13 Z M27.768,1.022 L1.022,1.022 L1.022,46.732994 L35.352002,46.732994 L35.352,8.416 L27.768762,8.41617 L27.768,1.022 Z M12.77,36.44 C13.1366667,36.44 13.4716667,36.4733333 13.775,36.54 C14.0783333,36.6066667 14.3366667,36.715 14.55,36.865 C14.7633333,37.015 14.93,37.2133333 15.05,37.46 C15.17,37.7066667 15.23,38.01 15.23,38.37 C15.23,38.7166667 15.1716667,39.0166667 15.055,39.27 C14.9383333,39.5233333 14.7733333,39.7333333 14.56,39.9 C14.3466667,40.0666667 14.0916667,40.1916667 13.795,40.275 C13.4983333,40.3583333 13.17,40.4 12.81,40.4 L12.81,40.4 L11.73,40.4 L11.73,43 L10.9,43 L10.9,36.44 Z M18.2,36.44 C19.2133333,36.44 19.9833333,36.72 20.51,37.28 C21.0366667,37.84 21.3,38.6433333 21.3,39.69 C21.3,40.21 21.2333333,40.675 21.1,41.085 C20.9666667,41.495 20.77,41.8416667 20.51,42.125 C20.25,42.4083333 19.93,42.625 19.55,42.775 C19.17,42.925 18.7333333,43 18.24,43 L18.24,43 L16.56,43 L16.56,36.44 Z M26.49,36.44 L26.49,37.14 L23.54,37.14 L23.54,39.36 L26.04,39.36 L26.04,40.06 L23.54,40.06 L23.54,43 L22.71,43 L22.71,36.44 L26.49,36.44 Z M18.14,37.12 L17.39,37.12 L17.39,42.32 L18.14,42.32 C18.9066667,42.32 19.4816667,42.09 19.865,41.63 C20.2483333,41.17 20.44,40.5233333 20.44,39.69 C20.44,38.8566667 20.2483333,38.22 19.865,37.78 C19.4816667,37.34 18.9066667,37.12 18.14,37.12 L18.14,37.12 Z M12.67,37.11 L11.73,37.11 L11.73,39.72 L12.71,39.72 C13.2833333,39.72 13.7083333,39.6116667 13.985,39.395 C14.2616667,39.1783333 14.4,38.8366667 14.4,38.37 C14.4,37.8966667 14.255,37.5683333 13.965,37.385 C13.675,37.2016667 13.2433333,37.11 12.67,37.11 L12.67,37.11 Z M15.4484013,12.5650283 C15.8866513,10.9500574 18.9544011,10.71283 19.3378699,13.1033519 C19.7669896,14.5084678 19.2009167,16.7438795 18.8448386,18.2128644 C19.5843855,20.156304 20.6343594,21.4793027 22.2047552,22.4373363 C23.7934113,22.2366055 26.9707237,21.9355092 28.0846091,23.0304047 C29.0432809,23.9884383 28.8150257,26.5614428 26.4868227,26.5614428 C25.1355519,26.5614428 23.1177759,25.941002 21.3921666,25.0103408 C19.4200417,25.3388095 17.192271,26.1691053 15.1471044,26.8442908 C10.5728702,34.7275387 7.89771931,31.1326317 8.19901618,29.6910192 C8.56422449,27.8661933 11.0293806,26.4154567 12.8554222,25.4756714 C13.8140941,23.7968316 15.174495,20.8679861 16.0875158,18.6873191 C15.4118804,16.0778181 15.0466721,14.0340131 15.4484013,12.5650283 Z M12.7732504,26.9355321 C12.2345681,27.4373592 10.4633077,28.8789717 9.99766714,30.1289774 C9.99766714,30.1928463 11.0385108,29.7001433 12.7732504,26.9355321 Z M17.4753074,20.2110487 C16.8635835,21.8260196 16.1057763,23.6599697 15.2201461,25.2019475 C16.6718491,24.6453756 18.3244168,23.8424522 20.2235,23.4501147 C19.2009167,22.6928119 18.2331147,21.5887923 17.4753074,20.2110487 Z M27.2354997,24.7457411 C27.5641872,24.526762 27.0346352,23.7968316 23.8299322,24.034059 C26.7789893,25.2931888 27.2354997,24.7457411 27.2354997,24.7457411 Z M17.4479168,12.7383867 C17.2196616,12.7383867 17.2105314,15.1927775 17.6122606,16.4610315 C18.0596407,15.6672323 18.1235522,12.7383867 17.4479168,12.7383867 Z M28.79,1.645 L28.790762,7.39417 L34.531,7.394 L28.79,1.645 Z" id="icon-pdf-download"></path>
                </g>
            </g>
        </g>
    </g>
</svg>