<?xml version="1.0" encoding="UTF-8"?>
<svg width="34px" height="24px" viewBox="0 0 34 24" version="1.1" xmlns="http://www.w3.org/2000/svg" xmlns:xlink="http://www.w3.org/1999/xlink">
    <title>icon-youtube</title>
    <g id="Symbols" stroke="none" stroke-width="1" fill="none" fill-rule="evenodd">
        <g id="_ORGANISMS/footer" transform="translate(-1546.000000, -242.000000)" fill="#FFFFFF" fill-rule="nonzero">
            <g id="_ORGANISMS/footer-Copy" transform="translate(0.000000, 60.000000)">
                <g id="_ORGANISMS/footer" transform="translate(0.000000, 28.000000)">
                    <path d="M1579.28954,157.755188 C1578.89851,156.277062 1577.7464,155.112937 1576.28358,154.717875 C1573.6321,154 1563,154 1563,154 C1563,154 1552.36796,154 1549.71642,154.717875 C1548.2536,155.113 1547.10149,156.277062 1546.71046,157.755188 C1546,160.434375 1546,166.02425 1546,166.02425 C1546,166.02425 1546,171.614125 1546.71046,174.293313 C1547.10149,175.771437 1548.2536,176.887063 1549.71642,177.282125 C1552.36796,178 1563,178 1563,178 C1563,178 1573.63204,178 1576.28358,177.282125 C1577.7464,176.887063 1578.89851,175.771437 1579.28954,174.293313 C1580,171.614125 1580,166.02425 1580,166.02425 C1580,166.02425 1580,160.434375 1579.28954,157.755188 Z M1559.5227,171.099437 L1559.5227,160.949062 L1568.40903,166.024375 L1559.5227,171.099437 Z" id="icon-youtube"></path>
                </g>
            </g>
        </g>
    </g>
</svg>