<?xml version="1.0" encoding="UTF-8"?>
<svg width="31px" height="25px" viewBox="0 0 31 25" version="1.1" xmlns="http://www.w3.org/2000/svg" xmlns:xlink="http://www.w3.org/1999/xlink">
    <title>icon-twitter</title>
    <g id="Symbols" stroke="none" stroke-width="1" fill="none" fill-rule="evenodd">
        <g id="_ORGANISMS/footer" transform="translate(-1493.000000, -241.000000)" fill="#FFFFFF" fill-rule="nonzero">
            <g id="_ORGANISMS/footer-Copy" transform="translate(0.000000, 60.000000)">
                <g id="_ORGANISMS/footer" transform="translate(0.000000, 28.000000)">
                    <path d="M1520.81353,159.230446 C1520.8332,159.503871 1520.8332,159.777355 1520.8332,160.05078 C1520.8332,168.390586 1514.44046,178 1502.75638,178 C1499.15673,178 1495.81284,176.964799 1493,175.168001 C1493.51144,175.226558 1494.00314,175.246096 1494.53426,175.246096 C1497.5044,175.246096 1500.23859,174.250033 1502.42198,172.55081 C1499.62882,172.492193 1497.28807,170.675796 1496.48158,168.175778 C1496.87502,168.234335 1497.26839,168.273412 1497.6815,168.273412 C1498.25192,168.273412 1498.82239,168.195257 1499.35345,168.058605 C1496.44228,167.472618 1494.25883,164.933582 1494.25883,161.867176 L1494.25883,161.789081 C1495.10462,162.257834 1496.08821,162.550798 1497.13065,162.589815 C1495.41934,161.45698 1494.29819,159.523409 1494.29819,157.335894 C1494.29819,156.16404 1494.61285,155.089821 1495.16365,154.152314 C1498.29121,157.980437 1502.99239,160.480395 1508.26393,160.75388 C1508.1656,160.285126 1508.10656,159.796894 1508.10656,159.308602 C1508.10656,155.831999 1510.93908,153 1514.46002,153 C1516.28933,153 1517.9416,153.761717 1519.10216,154.992187 C1520.53804,154.718762 1521.91494,154.191392 1523.13454,153.468753 C1522.66239,154.93363 1521.65925,156.1641 1520.34138,156.945296 C1521.61995,156.808644 1522.85917,156.457004 1524,155.968771 C1523.13466,157.21872 1522.05274,158.331957 1520.81353,159.230446 Z" id="icon-twitter"></path>
                </g>
            </g>
        </g>
    </g>
</svg>