<?xml version="1.0" encoding="UTF-8"?>
<svg width="226px" height="218px" viewBox="0 0 226 218" version="1.1" xmlns="http://www.w3.org/2000/svg" xmlns:xlink="http://www.w3.org/1999/xlink">
    <title>_ICONS/Wert</title>
    <g id="_ICONS/Wert" stroke="none" stroke-width="1" fill="none" fill-rule="evenodd">
        <polygon id="Fill-3" fill="#009FDA" points="31 197 71 197 71 193 31 193"></polygon>
        <path d="M62.12292,39.5648558 L171.989961,39.5648558 L171.989961,35.939643 C171.989961,27.6921842 165.245076,20.9881329 156.956326,20.9881329 L56.3965846,20.9881329 C59.9013585,23.9832207 62.12292,28.40606 62.12292,33.327416 L62.12292,39.5648558 Z M33.0100387,181 L29,181 L29,33.327416 C29,24.3262001 36.4306018,17 45.56146,17 C45.9945442,17 46.4236183,17.0159525 46.8446724,17.0438695 L46.8446724,17 L156.956326,17 C167.454607,17 176,25.4987112 176,35.939643 L176,43.5529887 L58.1128812,43.5529887 L58.1128812,33.327416 C58.1128812,26.5236613 52.4827868,20.9881329 45.56146,20.9881329 C38.6401331,20.9881329 33.0100387,26.5236613 33.0100387,33.327416 L33.0100387,181 L33.0100387,181 Z" id="Fill-4" fill="#009FDA"></path>
        <polygon id="Fill-5" fill="#009FDA" points="145 102 149 102 149 42 145 42"></polygon>
        <path d="M9.03283883,177.060227 L9.03283883,182.902893 C9.03283883,188.436982 13.5052571,192.939773 18.9979836,192.939773 C24.4947429,192.939773 28.9671612,188.436982 28.9671612,182.902893 L28.9671612,177.060227 L9.03283883,177.060227 Z M18.9979836,197 C11.2791301,197 5,190.674167 5,182.902893 L5,173 L33,173 L33,182.902893 C33,190.674167 26.7208699,197 18.9979836,197 L18.9979836,197 Z" id="Fill-6" fill="#009FDA"></path>
        <polygon id="Fill-7" fill="#009FDA" points="19 197 31 197 31 193 19 193"></polygon>
        <path d="M92.9980035,146.99361 C86.9285239,146.99361 81.9930787,151.929712 81.9930787,158 C81.9930787,164.070288 86.9285239,169.00639 92.9980035,169.00639 C99.067483,169.00639 104.006921,164.070288 104.006921,158 C104.006921,151.929712 99.067483,146.99361 92.9980035,146.99361 Z M92.9980035,173 C84.7283375,173 78,166.27476 78,158 C78,149.729233 84.7283375,143 92.9980035,143 C101.271662,143 108,149.729233 108,158 C108,166.27476 101.271662,173 92.9980035,173 L92.9980035,173 Z" id="Fill-8" fill="#009FDA"></path>
        <polyline id="Fill-9" fill="#009FDA" points="108 200 92.9980035 187.639341 78 200 78 158 81.9930787 158 81.9930787 191.551496 92.9980035 182.478796 104.006921 191.551496 104.006921 158 108 158 108 200"></polyline>
        <polygon id="Fill-10" fill="#009FDA" points="116 197 139 197 139 193 116 193"></polygon>
        <polygon id="Fill-11" fill="#009FDA" points="49 133 126 133 126 129 49 129"></polygon>
        <path d="M72.4980003,64.9993045 C68.3627195,64.9993045 64.9993045,68.3627195 64.9993045,72.4980003 C64.9993045,76.6332812 68.3627195,80.0006955 72.4980003,80.0006955 C76.6372805,80.0006955 80.0006955,76.6332812 80.0006955,72.4980003 C80.0006955,68.3627195 76.6372805,64.9993045 72.4980003,64.9993045 Z M72.4980003,84 C66.1591028,84 61,78.8408972 61,72.4980003 C61,66.1591028 66.1591028,61 72.4980003,61 C78.8408972,61 84,66.1591028 84,72.4980003 C84,78.8408972 78.8408972,84 72.4980003,84 L72.4980003,84 Z" id="Fill-12" fill="#009FDA"></path>
        <path d="M102.498,94.9986092 C98.3627195,94.9986092 94.9993045,98.3654381 94.9993045,102.5 C94.9993045,106.634562 98.3627195,110.001391 102.498,110.001391 C106.63728,110.001391 110.000696,106.634562 110.000696,102.5 C110.000696,98.3654381 106.63728,94.9986092 102.498,94.9986092 Z M102.498,114 C96.1591028,114 91,108.841794 91,102.5 C91,96.1582058 96.1591028,91 102.498,91 C108.840897,91 114,96.1582058 114,102.5 C114,108.841794 108.840897,114 102.498,114 L102.498,114 Z" id="Fill-13" fill="#009FDA"></path>
        <polyline id="Fill-14" fill="#009FDA" points="67.8543796 109 65 106.203002 106.14562 65 109 67.7969979 67.8543796 109"></polyline>
        <path d="M142.023852,195.994713 L216.976148,195.994713 L216.976148,104.005287 L142.023852,104.005287 L142.023852,195.994713 Z M138,200 L221,200 L221,100 L138,100 L138,200 Z" id="Fill-15" fill="#009FDA"></path>
        <polygon id="Fill-16" fill="#009FDA" points="140 137 219 137 219 133 140 133"></polygon>
        <polygon id="Fill-17" fill="#009FDA" points="155 150 159 150 159 146 155 146"></polygon>
        <polygon id="Fill-18" fill="#009FDA" points="155 163 159 163 159 159 155 159"></polygon>
        <polygon id="Fill-19" fill="#009FDA" points="155 175 159 175 159 171 155 171"></polygon>
        <polygon id="Fill-20" fill="#009FDA" points="155 187 159 187 159 183 155 183"></polygon>
        <polygon id="Fill-21" fill="#009FDA" points="172 150 176 150 176 146 172 146"></polygon>
        <polygon id="Fill-22" fill="#009FDA" points="172 163 176 163 176 159 172 159"></polygon>
        <polygon id="Fill-23" fill="#009FDA" points="172 175 176 175 176 171 172 171"></polygon>
        <polygon id="Fill-24" fill="#009FDA" points="172 187 176 187 176 183 172 183"></polygon>
        <polygon id="Fill-25" fill="#009FDA" points="188 150 192 150 192 146 188 146"></polygon>
        <polygon id="Fill-26" fill="#009FDA" points="188 163 192 163 192 159 188 159"></polygon>
        <polygon id="Fill-27" fill="#009FDA" points="188 175 192 175 192 171 188 171"></polygon>
        <polygon id="Fill-28" fill="#009FDA" points="188 187 192 187 192 183 188 183"></polygon>
        <polygon id="Fill-29" fill="#009FDA" points="201 188 205 188 205 161 201 161"></polygon>
        <polygon id="Fill-30" fill="#009FDA" points="201 150 205 150 205 146 201 146"></polygon>
        <polygon id="Fill-31" fill="#009FDA" points="179 121 200 121 200 117 179 117"></polygon>
    </g>
</svg>