<?xml version="1.0" encoding="UTF-8"?>
<svg width="226px" height="218px" viewBox="0 0 226 218" version="1.1" xmlns="http://www.w3.org/2000/svg" xmlns:xlink="http://www.w3.org/1999/xlink">
    <title>_ICONS/Person</title>
    <g id="_ICONS/Person" stroke="none" stroke-width="1" fill="none" fill-rule="evenodd">
        <g id="Group-4" transform="translate(0.000000, 14.000000)" fill="#009FDA">
            <path d="M62.612,186.092 L94.66,186.092 L94.66,117.508 L62.612,117.508 L62.612,186.092 Z M58.612,190.092 L98.66,190.092 L98.66,113.508 L58.612,113.508 L58.612,190.092 Z" id="Fill-48"></path>
            <polyline id="Fill-46" points="2.328 82.964 0 79.716 111.388 -4.97379915e-14 161.688 35.996 159.36 39.248 111.388 4.924 2.328 82.964"></polyline>
            <polygon id="Fill-47" points="30.228 188.092 34.228 188.092 34.228 59.112 30.228 59.112"></polygon>
            <polygon id="Fill-50" points="1.164 190.092 112.168 190.092 112.168 186.092 1.164 186.092"></polygon>
            <path d="M153.06,6.98 C141.284,6.98 132.344,10.256 126.48,16.716 C119.096,24.852 116.256,38.256 118.04,56.552 C120.796,84.936 134.544,103.276 153.06,103.276 C171.488,103.276 184.908,85.36 188.088,56.528 C190.084,38.428 187.376,25.096 180.036,16.9 C174.14,10.316 165.064,6.98 153.06,6.98 Z M153.06,107.276 C132.34,107.276 117.028,87.516 114.052,56.944 C112.16,37.472 115.344,23.036 123.52,14.028 C130.172,6.696 140.108,2.98 153.06,2.98 C166.248,2.98 176.328,6.768 183.012,14.228 C191.144,23.304 194.192,37.684 192.064,56.964 C188.644,87.996 173.7,107.276 153.06,107.276 L153.06,107.276 Z" id="Fill-51"></path>
            <path d="M84.068,189.156 L80.068,189.156 L80.108,155.692 C80.208,155.22 82.62,144.052 95.784,139.284 C107.58,135.004 117.828,126.88 117.928,126.796 L120.428,129.924 C119.992,130.272 109.58,138.536 97.148,143.04 C86.868,146.772 84.408,154.964 84.068,156.32 L84.068,189.156" id="Fill-52"></path>
            <path d="M121.628,128.084 L139.004,147.14 L150.572,133.504 L128.352,116.164 L121.628,128.084 Z M139.032,151.66 C138.192,151.66 137.384,151.304 136.82,150.684 L118.184,130.24 C117.312,129.288 117.152,127.884 117.788,126.756 L125.44,113.184 C125.868,112.424 126.604,111.892 127.46,111.72 C128.308,111.556 129.196,111.76 129.884,112.288 L153.86,130.992 C154.5,131.492 154.912,132.244 154.996,133.048 C155.076,133.852 154.828,134.668 154.304,135.288 L154.3,135.288 L141.312,150.604 C140.76,151.26 139.948,151.644 139.084,151.66 C139.064,151.66 139.048,151.66 139.032,151.66 L139.032,151.66 Z" id="Fill-53"></path>
            <path d="M226.172,189.156 L222.172,189.156 L222.172,156.316 C221.84,154.992 219.388,146.776 209.092,143.04 C196.66,138.536 186.252,130.272 185.816,129.924 L188.316,126.796 C188.416,126.88 198.66,135.004 210.452,139.284 C223.624,144.052 226.036,155.22 226.132,155.692 L226.172,156.092 L226.172,189.156" id="Fill-54"></path>
            <path d="M155.672,133.5 L167.24,147.14 L184.612,128.084 L177.892,116.164 L155.672,133.5 Z M167.212,151.66 C167.192,151.66 167.172,151.66 167.152,151.66 C166.292,151.64 165.484,151.256 164.928,150.604 L151.94,135.288 C151.42,134.672 151.168,133.856 151.248,133.052 C151.332,132.248 151.74,131.5 152.376,131 L176.356,112.288 C177.052,111.752 177.936,111.556 178.792,111.72 C179.644,111.892 180.38,112.428 180.804,113.184 L188.456,126.756 C189.092,127.884 188.932,129.288 188.056,130.24 L169.424,150.684 C168.852,151.308 168.048,151.66 167.212,151.66 L167.212,151.66 Z" id="Fill-55"></path>
            <polygon id="Fill-56" points="151.232 188.092 155.232 188.092 155.232 149.66 151.232 149.66"></polygon>
        </g>
    </g>
</svg>