<?xml version="1.0" encoding="UTF-8"?>
<svg width="226px" height="218px" viewBox="0 0 226 218" version="1.1" xmlns="http://www.w3.org/2000/svg" xmlns:xlink="http://www.w3.org/1999/xlink">
    <title>_ICONS/Marker</title>
    <g id="_ICONS/Marker" stroke="none" stroke-width="1" fill="none" fill-rule="evenodd">
        <g id="Group-5" transform="translate(0.000000, 13.000000)" fill="#009FDA">
            <polyline id="Fill-57" points="2.328 82.964 1.42108547e-14 79.708 111.392 -7.10542736e-15 154.036 30.516 151.708 33.772 111.392 4.92 2.328 82.964"></polyline>
            <polygon id="Fill-58" points="30.232 188.084 34.232 188.084 34.232 59.104 30.232 59.104"></polygon>
            <polygon id="Fill-61" points="1.164 190.084 139.724 190.084 139.724 186.084 1.164 186.084"></polygon>
            <path d="M161.188,19.664 C127.352,19.664 99.824,47.192 99.824,81.028 C99.824,93.988 112.588,114.34 112.72,114.544 L159.108,184.584 L205.404,121.26 C205.568,121.028 222.552,97.332 222.552,81.028 C222.552,47.192 195.024,19.664 161.188,19.664 Z M158.944,191.584 L109.36,116.716 C108.784,115.808 95.824,95.132 95.824,81.028 C95.824,44.984 125.144,15.664 161.188,15.664 C197.232,15.664 226.552,44.984 226.552,81.028 C226.552,98.628 209.372,122.596 208.64,123.608 L158.944,191.584 L158.944,191.584 Z" id="Fill-62"></path>
            <path d="M160.572,62.264 C149.732,62.264 140.904,71.088 140.904,81.932 C140.904,92.776 149.732,101.6 160.572,101.6 C171.416,101.6 180.24,92.776 180.24,81.932 C180.24,71.088 171.416,62.264 160.572,62.264 Z M160.572,105.6 C147.524,105.6 136.904,94.984 136.904,81.932 C136.904,68.884 147.524,58.264 160.572,58.264 C173.624,58.264 184.24,68.884 184.24,81.932 C184.24,94.984 173.624,105.6 160.572,105.6 L160.572,105.6 Z" id="Fill-63"></path>
        </g>
    </g>
</svg>