<?xml version="1.0" encoding="UTF-8"?>
<svg width="226px" height="218px" viewBox="0 0 226 218" version="1.1" xmlns="http://www.w3.org/2000/svg" xmlns:xlink="http://www.w3.org/1999/xlink">
    <title>_ICONS/Hochhaus</title>
    <g id="_ICONS/Hochhaus" stroke="none" stroke-width="1" fill="none" fill-rule="evenodd">
        <g id="Group-2" fill="#009FDA">
            <path d="M39.7899576,40.5175776 L83.865235,40.5175776 L83.865235,14.3272791 L39.7899576,14.3272791 L39.7899576,40.5175776 Z M63.8375962,2.27373675e-13 L63.837,10.311 L87.8852348,10.3112994 L87.885,40.517 L98.6789341,40.5175776 L98.678,73.634 L169.85303,73.6343356 L169.85303,142.738131 L165.83303,142.738131 L165.83303,77.6543354 L98.6789341,77.6543354 L98.6789341,213.240887 L171.195,213.24 L171.195721,193.058974 C166.175779,190.993623 159.71459,181.994741 159.71459,171.91127 C159.71459,155.815191 171.45299,146.319951 171.95549,145.925991 L173.27405,144.880791 L174.53633,145.994331 C174.695485,146.136908 177.868431,148.959625 180.80017,152.887994 C183.767432,148.54237 186.76586,146.120853 187.014409,145.925991 L188.292769,144.908931 L189.547009,145.958151 C189.699111,146.086055 192.829768,148.719869 195.81531,152.952144 C198.795892,148.566148 201.82154,146.121808 202.069308,145.925991 L203.319528,144.937071 L204.565728,145.925991 C205.068228,146.319951 216.810647,155.815191 216.810647,171.91127 C216.810647,181.994072 210.347226,190.992429 205.329373,193.058563 L205.329,213.24 L225.067727,213.240887 L225.067727,217.260887 L84.982,217.26 L84.9827949,217.264907 L38.6764177,217.264907 L38.676,217.26 L0,217.260887 L0,213.240887 L24.976,213.24 L24.9762585,40.5175776 L35.769,40.517 L35.7699579,10.3112994 L59.817,10.311 L59.8175964,2.27373675e-13 L63.8375962,2.27373675e-13 Z M195.810284,188.544938 L195.678504,188.686682 C194.089441,190.388012 192.089901,192.135074 190.270056,192.980743 L190.27,213.24 L201.309,213.24 L201.309683,193.058563 C199.5407,192.330172 197.592058,190.740225 195.810284,188.544938 Z M180.653167,188.423126 L180.601736,188.484086 C179.0654,190.309221 177.121369,192.168654 175.215292,193.021505 L175.215,213.24 L186.25,213.24 L186.250764,193.058563 C184.449226,192.316768 182.461356,190.681414 180.653167,188.423126 Z M35.769,44.537 L28.9962583,44.5375773 L28.9962583,213.240887 L38.676,213.24 L38.6764177,181.969309 L84.9827949,181.969309 L84.982,213.24 L94.6589344,213.240887 L94.6589344,44.5375773 L87.885,44.537 L87.8852348,44.5415973 L35.7699579,44.5415973 L35.769,44.537 Z M59.817,185.985 L42.6964175,185.985289 L42.6964175,213.240887 L59.817,213.24 L59.817,185.985 Z M80.9627952,185.985289 L63.837,185.985 L63.837,213.24 L80.9627952,213.240887 L80.9627952,185.985289 Z M155.409171,181.969309 L155.409171,201.635148 L109.102793,201.635148 L109.102793,181.969309 L155.409171,181.969309 Z M151.389171,185.989309 L113.122793,185.989309 L113.122793,197.615148 L151.389171,197.615148 L151.389171,185.989309 Z M173.17757,150.247491 C170.33141,153.065511 163.73459,160.79195 163.73459,171.91127 C163.73459,181.993429 170.98265,189.482689 173.20571,189.482689 C173.893559,189.429777 176.110446,187.838542 178.305556,184.934408 C176.231916,181.258074 174.76949,176.707356 174.76949,171.91127 C174.76949,165.842885 176.438518,160.712721 178.54502,156.654769 C176.709485,153.93658 174.531346,151.601267 173.17757,150.247491 Z M188.248549,150.231411 C185.414449,153.033351 178.789489,160.76783 178.789489,171.91127 C178.789489,181.993429 186.041569,189.482689 188.260609,189.482689 C188.917727,189.372577 191.338667,187.643014 193.476885,185.131474 C191.344014,181.421998 189.828409,176.79378 189.828409,171.91127 C189.828409,165.906102 191.462844,160.81971 193.538041,156.781939 C191.691561,153.840569 189.570268,151.533975 188.248549,150.231411 Z M203.319528,150.223371 C200.489448,153.013251 193.848408,160.75175 193.848408,171.91127 C193.848408,181.993429 201.100488,189.482689 203.319528,189.482689 C205.538568,189.482689 212.790647,181.993429 212.790647,171.91127 C212.790647,160.75175 206.149608,153.013251 203.319528,150.223371 Z M84.9827949,167.91137 L84.9827949,171.08315 L80.9627952,171.08315 L80.9627952,167.91137 L84.9827949,167.91137 Z M70.8846558,167.91137 L70.8846558,171.08315 L66.864656,171.08315 L66.864656,167.91137 L70.8846558,167.91137 Z M56.7905366,167.91137 L56.7905366,171.08315 L52.7705369,171.08315 L52.7705369,167.91137 L56.7905366,167.91137 Z M42.6964175,167.91137 L42.6964175,171.08315 L38.6764177,171.08315 L38.6764177,167.91137 L42.6964175,167.91137 Z M113.122793,167.91137 L113.122793,171.08315 L109.102793,171.08315 L109.102793,167.91137 L113.122793,167.91137 Z M127.220932,167.91137 L127.220932,171.08315 L123.200933,171.08315 L123.200933,167.91137 L127.220932,167.91137 Z M141.311032,167.91137 L141.311032,171.08315 L137.291032,171.08315 L137.291032,167.91137 L141.311032,167.91137 Z M155.409171,167.91137 L155.409171,171.08315 L151.389171,171.08315 L151.389171,167.91137 L155.409171,167.91137 Z M84.9827949,149.580171 L84.9827949,152.751951 L80.9627952,152.751951 L80.9627952,149.580171 L84.9827949,149.580171 Z M70.8846558,149.580171 L70.8846558,152.751951 L66.864656,152.751951 L66.864656,149.580171 L70.8846558,149.580171 Z M56.7905366,149.580171 L56.7905366,152.751951 L52.7705369,152.751951 L52.7705369,149.580171 L56.7905366,149.580171 Z M42.6964175,149.580171 L42.6964175,152.751951 L38.6764177,152.751951 L38.6764177,149.580171 L42.6964175,149.580171 Z M127.220932,149.117871 L127.220932,152.289651 L123.200933,152.289651 L123.200933,149.117871 L127.220932,149.117871 Z M141.311032,149.117871 L141.311032,152.289651 L137.291032,152.289651 L137.291032,149.117871 L141.311032,149.117871 Z M155.409171,149.117871 L155.409171,152.289651 L151.389171,152.289651 L151.389171,149.117871 L155.409171,149.117871 Z M113.122793,149.117871 L113.122793,152.289651 L109.102793,152.289651 L109.102793,149.117871 L113.122793,149.117871 Z M56.7905366,131.252992 L56.7905366,134.424772 L52.7705369,134.424772 L52.7705369,131.252992 L56.7905366,131.252992 Z M42.6964175,131.252992 L42.6964175,134.424772 L38.6764177,134.424772 L38.6764177,131.252992 L42.6964175,131.252992 Z M84.9827949,131.252992 L84.9827949,134.424772 L80.9627952,134.424772 L80.9627952,131.252992 L84.9827949,131.252992 Z M70.8846558,131.252992 L70.8846558,134.424772 L66.864656,134.424772 L66.864656,131.252992 L70.8846558,131.252992 Z M127.220932,130.324372 L127.220932,133.496152 L123.200933,133.496152 L123.200933,130.324372 L127.220932,130.324372 Z M113.122793,130.324372 L113.122793,133.496152 L109.102793,133.496152 L109.102793,130.324372 L113.122793,130.324372 Z M141.311032,130.324372 L141.311032,133.496152 L137.291032,133.496152 L137.291032,130.324372 L141.311032,130.324372 Z M155.409171,130.324372 L155.409171,133.496152 L151.389171,133.496152 L151.389171,130.324372 L155.409171,130.324372 Z M42.6964175,112.921793 L42.6964175,116.093573 L38.6764177,116.093573 L38.6764177,112.921793 L42.6964175,112.921793 Z M70.8846558,112.921793 L70.8846558,116.093573 L66.864656,116.093573 L66.864656,112.921793 L70.8846558,112.921793 Z M84.9827949,112.921793 L84.9827949,116.093573 L80.9627952,116.093573 L80.9627952,112.921793 L84.9827949,112.921793 Z M56.7905366,112.921793 L56.7905366,116.093573 L52.7705369,116.093573 L52.7705369,112.921793 L56.7905366,112.921793 Z M127.220932,111.534893 L127.220932,114.706673 L123.200933,114.706673 L123.200933,111.534893 L127.220932,111.534893 Z M141.311032,111.534893 L141.311032,114.706673 L137.291032,114.706673 L137.291032,111.534893 L141.311032,111.534893 Z M155.409171,111.534893 L155.409171,114.706673 L151.389171,114.706673 L151.389171,111.534893 L155.409171,111.534893 Z M113.122793,111.534893 L113.122793,114.706673 L109.102793,114.706673 L109.102793,111.534893 L113.122793,111.534893 Z M42.6964175,94.5946144 L42.6964175,97.7663942 L38.6764177,97.7663942 L38.6764177,94.5946144 L42.6964175,94.5946144 Z M56.7905366,94.5946144 L56.7905366,97.7663942 L52.7705369,97.7663942 L52.7705369,94.5946144 L56.7905366,94.5946144 Z M70.8846558,94.5946144 L70.8846558,97.7663942 L66.864656,97.7663942 L66.864656,94.5946144 L70.8846558,94.5946144 Z M84.9827949,94.5946144 L84.9827949,97.7663942 L80.9627952,97.7663942 L80.9627952,94.5946144 L84.9827949,94.5946144 Z M113.122793,92.7413945 L113.122793,95.9131743 L109.102793,95.9131743 L109.102793,92.7413945 L113.122793,92.7413945 Z M127.220932,92.7413945 L127.220932,95.9131743 L123.200933,95.9131743 L123.200933,92.7413945 L127.220932,92.7413945 Z M141.311032,92.7413945 L141.311032,95.9131743 L137.291032,95.9131743 L137.291032,92.7413945 L141.311032,92.7413945 Z M155.409171,92.7413945 L155.409171,95.9131743 L151.389171,95.9131743 L151.389171,92.7413945 L155.409171,92.7413945 Z M42.6964175,76.2634155 L42.6964175,79.4351953 L38.6764177,79.4351953 L38.6764177,76.2634155 L42.6964175,76.2634155 Z M56.7905366,76.2634155 L56.7905366,79.4351953 L52.7705369,79.4351953 L52.7705369,76.2634155 L56.7905366,76.2634155 Z M70.8846558,76.2634155 L70.8846558,79.4351953 L66.864656,79.4351953 L66.864656,76.2634155 L70.8846558,76.2634155 Z M84.9827949,76.2634155 L84.9827949,79.4351953 L80.9627952,79.4351953 L80.9627952,76.2634155 L84.9827949,76.2634155 Z M42.6964175,57.9362365 L42.6964175,61.1039964 L38.6764177,61.1039964 L38.6764177,57.9362365 L42.6964175,57.9362365 Z M56.7905366,57.9362365 L56.7905366,61.1039964 L52.7705369,61.1039964 L52.7705369,57.9362365 L56.7905366,57.9362365 Z M70.8846558,57.9362365 L70.8846558,61.1039964 L66.864656,61.1039964 L66.864656,57.9362365 L70.8846558,57.9362365 Z M84.9827949,57.9362365 L84.9827949,61.1039964 L80.9627952,61.1039964 L80.9627952,57.9362365 L84.9827949,57.9362365 Z" id="Fill-186"></path>
        </g>
    </g>
</svg>