<?xml version="1.0" encoding="UTF-8"?>
<svg width="226px" height="218px" viewBox="0 0 226 218" version="1.1" xmlns="http://www.w3.org/2000/svg" xmlns:xlink="http://www.w3.org/1999/xlink">
    <title>_ICONS/Schluessel</title>
    <g id="_ICONS/Schluessel" stroke="none" stroke-width="1" fill="none" fill-rule="evenodd">
        <g id="Group-3" transform="translate(34.000000, 6.000000)" fill="#009FDA">
            <path d="M40.6138672,204.652 C39.1338672,204.652 37.6578672,204.12 36.4938672,203.06 L27.6218672,195 C26.3458672,193.844 25.6138672,192.188 25.6138672,190.464 L25.6138672,115.092 C8.29386715,108.244 -2.05013285,90.764 0.341867155,72.08 C1.17386715,65.6 3.64986715,59.32 7.50586715,53.928 L10.7578672,56.256 C7.28586715,61.112 5.05786715,66.76 4.30986715,72.588 C2.09786715,89.864 11.9578672,105.996 28.2858672,111.824 L29.6138672,112.3 L29.6138672,190.464 C29.6138672,191.064 29.8698672,191.636 30.3098672,192.04 L39.1818672,200.1 C39.9898672,200.832 41.2018672,200.84 42.0218672,200.128 L60.9458672,183.588 C61.0978672,183.456 61.1258672,183.296 61.1218672,183.184 C61.1178672,183.072 61.0858672,182.916 60.9258672,182.796 L53.9018672,177.464 C53.0258672,176.8 52.4978672,175.788 52.4498672,174.692 C52.4098672,173.592 52.8498672,172.54 53.6698672,171.804 L60.8738672,165.368 C61.0258672,165.228 61.0538672,165.064 61.0458672,164.952 C61.0378672,164.836 60.9938672,164.68 60.8218672,164.564 L54.3058672,160.064 C53.3658672,159.416 52.7858672,158.388 52.7258672,157.244 C52.6618672,156.1 53.1218672,155.012 53.9898672,154.264 L60.8538672,148.336 C61.0098672,148.2 61.0378672,148.036 61.0338672,147.924 C61.0258672,147.812 60.9818672,147.648 60.8138672,147.528 L52.1658672,141.392 L52.1658672,113.468 L56.1658672,113.468 L56.1658672,139.324 L63.1298672,144.268 C64.2698672,145.076 64.9618672,146.34 65.0258672,147.736 C65.0938672,149.128 64.5258672,150.452 63.4698672,151.364 L56.9298672,157.012 L63.0978672,161.268 C64.2418672,162.06 64.9458672,163.312 65.0378672,164.7 C65.1218672,166.092 64.5778672,167.42 63.5378672,168.348 L56.6338672,174.516 L63.3418672,179.612 C64.4258672,180.432 65.0778672,181.684 65.1218672,183.048 C65.1698672,184.408 64.6058672,185.704 63.5818672,186.6 L44.6498672,203.14 C43.4898672,204.148 42.0538672,204.652 40.6138672,204.652" id="Fill-206"></path>
            <path d="M76.6018672,104.124 L137.825867,152.72 C138.293867,153.092 138.885867,153.26 139.497867,153.152 L151.321867,151.216 C152.393867,151.04 153.157867,150.092 153.105867,149.016 L151.925867,123.9 C151.913867,123.7 151.801867,123.58 151.717867,123.512 C151.621867,123.448 151.465867,123.384 151.281867,123.428 L142.745867,125.616 C141.685867,125.888 140.557867,125.676 139.665867,125.02 C138.777867,124.372 138.233867,123.372 138.165867,122.272 L137.601867,112.632 C137.593867,112.428 137.473867,112.308 137.381867,112.24 C137.289867,112.176 137.141867,112.116 136.937867,112.168 L129.365867,114.48 C128.269867,114.816 127.109867,114.628 126.177867,113.968 C125.245867,113.304 124.677867,112.268 124.625867,111.124 L124.249867,102.06 C124.241867,101.852 124.129867,101.732 124.037867,101.664 C123.945867,101.596 123.781867,101.536 123.597867,101.588 L113.413867,104.548 L90.4578672,86.328 L90.8778672,85.012 C95.4898672,70.6 90.6418672,54.612 78.8218672,45.232 C70.6858672,38.772 60.1298672,36.08 49.9018672,37.832 C39.5098672,39.616 30.6778672,45.56 25.0258672,54.572 C16.2218672,68.612 18.2178672,87.404 29.7658672,99.26 C41.9258672,111.732 60.6938672,114.04 75.4058672,104.872 L76.6018672,104.124 Z M139.153867,157.18 C137.777867,157.18 136.429867,156.716 135.337867,155.848 L76.3018672,108.996 C60.1778672,118.308 40.0538672,115.54 26.9018672,102.052 C14.0818672,88.892 11.8658672,68.032 21.6338672,52.448 C27.9018672,42.456 37.6978672,35.868 49.2218672,33.892 C60.5778672,31.94 72.2778672,34.932 81.3058672,42.096 C94.0618672,52.22 99.4978672,69.264 95.0898672,84.896 L114.277867,100.132 L122.477867,97.748 C123.805867,97.348 125.237867,97.6 126.373867,98.416 C127.505867,99.232 128.189867,100.5 128.249867,101.896 L128.605867,110.528 L135.773867,108.344 C137.097867,107.94 138.525867,108.16 139.661867,108.956 C140.805867,109.748 141.513867,111.004 141.597867,112.396 L142.133867,121.644 L150.289867,119.556 C151.601867,119.212 152.993867,119.484 154.097867,120.3 C155.189867,121.108 155.853867,122.352 155.917867,123.716 L157.097867,148.824 C157.253867,151.932 155.045867,154.656 151.969867,155.16 L140.141867,157.1 C139.813867,157.152 139.481867,157.18 139.153867,157.18 L139.153867,157.18 Z" id="Fill-207"></path>
            <path d="M53.0858672,59.044 C52.6618672,59.044 52.2378672,59.064 51.8098672,59.116 C48.9098672,59.448 46.3098672,60.892 44.4938672,63.18 C42.6778672,65.468 41.8618672,68.328 42.1978672,71.232 C42.5298672,74.132 43.9738672,76.732 46.2658672,78.548 C48.5538672,80.364 51.4018672,81.176 54.3098672,80.844 C57.2138672,80.512 59.8098672,79.068 61.6258672,76.78 C63.4418672,74.492 64.2618672,71.632 63.9298672,68.732 C63.5978672,65.828 62.1498672,63.232 59.8618672,61.412 C57.9098672,59.864 55.5418672,59.044 53.0858672,59.044 Z M53.0338672,84.92 C49.6778672,84.92 46.4418672,83.796 43.7778672,81.68 C40.6538672,79.2 38.6818672,75.648 38.2258672,71.688 C37.7658672,67.724 38.8818672,63.82 41.3618672,60.696 C43.8418672,57.568 47.3898672,55.596 51.3538672,55.144 C55.3218672,54.676 59.2258672,55.8 62.3458672,58.28 C65.4738672,60.76 67.4458672,64.312 67.9018672,68.272 C68.3578672,72.236 67.2418672,76.144 64.7618672,79.268 C62.2778672,82.392 58.7338672,84.364 54.7658672,84.82 C54.1898672,84.888 53.6058672,84.92 53.0338672,84.92 L53.0338672,84.92 Z" id="Fill-208"></path>
            <path d="M56.8018672,70.608 C37.3338672,70.608 21.4978672,54.772 21.4978672,35.304 C21.4978672,15.836 37.3338672,1.0658141e-13 56.8018672,1.0658141e-13 C76.2698672,1.0658141e-13 92.1058672,15.836 92.1058672,35.304 C92.1058672,40.868 90.8498672,46.2 88.3658672,51.144 L84.7858672,49.348 C86.9898672,44.964 88.1058672,40.24 88.1058672,35.304 C88.1058672,18.044 74.0658672,4 56.8018672,4 C39.5418672,4 25.4978672,18.044 25.4978672,35.304 C25.4978672,52.564 39.5418672,66.608 56.8018672,66.608 L56.8018672,70.608" id="Fill-209"></path>
        </g>
    </g>
</svg>