<?xml version="1.0" encoding="UTF-8"?>
<svg width="226px" height="218px" viewBox="0 0 226 218" version="1.1" xmlns="http://www.w3.org/2000/svg" xmlns:xlink="http://www.w3.org/1999/xlink">
    <title>_ICONS/Farbroller</title>
    <g id="_ICONS/Farbroller" stroke="none" stroke-width="1" fill="none" fill-rule="evenodd">
        <g id="Group-6" transform="translate(6.000000, 16.000000)" fill="#009FDA">
            <path d="M19.9198356,153.446178 L19.5643747,4.63980822 C19.5605753,3.40150685 20.042137,2.23582192 20.9173562,1.36060274 C21.7887534,0.481561644 22.9544384,-2.17250875e-13 24.1889178,-2.17250875e-13 L158.475822,-2.17250875e-13 C161.028863,-2.17250875e-13 163.104164,2.07530137 163.104164,4.62834247 L163.104164,39.3542877 L159.282247,39.3542877 L159.282247,4.62834247 C159.282247,4.185 158.919164,3.82191781 158.475822,3.82191781 L24.1889178,3.82191781 C23.902274,3.82191781 23.7111781,3.9709726 23.623274,4.05887671 C23.5353699,4.14678082 23.3863151,4.33787671 23.3863151,4.63216438 L23.7417534,153.438534 L19.9198356,153.446178" id="Fill-235"></path>
            <path d="M146.601123,185.05726 L16.7132466,185.05726 C7.49860274,185.05726 -1.08625437e-13,177.558658 -1.08625437e-13,168.340192 C-1.08625437e-13,159.125548 7.49860274,151.626945 16.7132466,151.626945 L140.665685,151.626945 L140.665685,155.448863 L16.7132466,155.448863 C9.60447945,155.448863 3.82191781,161.231425 3.82191781,168.340192 C3.82191781,175.452781 9.60447945,181.235342 16.7132466,181.235342 L146.601123,181.235342 C153.595233,181.235342 159.282247,175.548329 159.282247,168.558041 L159.282247,77.6766575 L163.104164,77.6766575 L163.104164,168.558041 C163.104164,177.658027 155.70111,185.05726 146.601123,185.05726" id="Fill-236"></path>
            <path d="M135.708658,184.858521 C135.250027,184.625384 124.479863,179.060671 126.279986,164.334822 C126.811233,159.993123 128.59989,156.671877 131.603918,154.455164 C137.053973,150.430685 144.479959,151.707205 144.801,151.764534 C148.217795,151.940342 155.154575,154.776205 155.246301,164.059644 C155.284521,167.973288 154.244959,170.977315 152.162014,172.987644 C149.154164,175.892301 145.037959,175.697384 143.692644,175.640055 L143.86463,171.825781 C144.801,171.867822 147.682726,172.001589 149.509603,170.235863 C150.809055,168.982274 151.451137,166.918438 151.424384,164.097863 C151.344123,156.037438 144.640479,155.571164 144.357658,155.555877 C144.059548,155.521479 137.967411,154.493384 133.851205,157.543274 C131.741507,159.106438 130.47263,161.548644 130.071329,164.801096 C128.607534,176.775164 137.065438,181.258274 137.424699,181.441726 L135.708658,184.858521" id="Fill-237"></path>
            <path d="M41.433411,26.3597671 L37.6114932,26.3597671 C37.6114932,18.4025342 44.0858219,11.9282055 52.0430548,11.9282055 L52.0430548,15.7501233 C46.1916986,15.7501233 41.433411,20.508411 41.433411,26.3597671" id="Fill-238"></path>
            <path d="M71.8520548,26.3597671 L68.030137,26.3597671 C68.030137,18.4025342 74.5044658,11.9282055 82.4616986,11.9282055 L82.4616986,15.7501233 C76.6103425,15.7501233 71.8520548,20.508411 71.8520548,26.3597671" id="Fill-239"></path>
            <path d="M102.270699,26.3597671 L98.4487808,26.3597671 C98.4487808,18.4025342 104.919288,11.9282055 112.876521,11.9282055 L112.876521,15.7501233 C107.028986,15.7501233 102.270699,20.508411 102.270699,26.3597671" id="Fill-240"></path>
            <path d="M132.685521,26.3597671 L128.863603,26.3597671 C128.863603,18.4025342 135.337932,11.9282055 143.295164,11.9282055 L143.295164,15.7501233 C137.443808,15.7501233 132.685521,20.508411 132.685521,26.3597671" id="Fill-241"></path>
            <path d="M118.368616,42.0640274 C117.386384,39.3925068 115.330192,37.198726 112.719822,36.0406849 L114.271521,32.5474521 C117.81826,34.1220822 120.619726,37.1108219 121.957397,40.7454658 L118.368616,42.0640274" id="Fill-242"></path>
            <path d="M88.4812192,42.0640274 C87.4951644,39.3925068 85.4351507,37.198726 82.8324247,36.0406849 L84.3841233,32.5474521 C87.9270411,34.1220822 90.7246849,37.107 92.0661781,40.7454658 L88.4812192,42.0640274" id="Fill-243"></path>
            <path d="M58.5938219,42.0640274 C57.6039452,39.3925068 55.5477534,37.198726 52.9450274,36.0406849 L54.496726,32.5474521 C58.0396438,34.1220822 60.8372877,37.107 62.1787808,40.7454658 L58.5938219,42.0640274" id="Fill-244"></path>
            <path d="M118.368616,82.8706438 C117.386384,80.1991233 115.330192,78.0053425 112.719822,76.8473014 L114.271521,73.3540685 C117.81826,74.9286986 120.619726,77.9174384 121.957397,81.5482603 L118.368616,82.8706438" id="Fill-245"></path>
            <path d="M88.4812192,82.8706438 C87.4951644,80.1991233 85.4351507,78.0053425 82.8324247,76.8473014 L84.3841233,73.3540685 C87.9270411,74.9286986 90.7246849,77.9136164 92.0661781,81.5482603 L88.4812192,82.8706438" id="Fill-246"></path>
            <path d="M58.5938219,82.8706438 C57.6039452,80.1991233 55.5477534,78.0053425 52.9450274,76.8473014 L54.496726,73.3540685 C58.0396438,74.9286986 60.8372877,77.9136164 62.1787808,81.5482603 L58.5938219,82.8706438" id="Fill-247"></path>
            <path d="M118.372438,123.673438 C117.386384,121.00574 115.330192,118.808137 112.719822,117.653918 L114.271521,114.160685 C117.81826,115.735315 120.619726,118.720233 121.953575,122.351055 L118.372438,123.673438" id="Fill-248"></path>
            <path d="M88.4812192,123.673438 C87.4951644,121.00574 85.4351507,118.808137 82.8324247,117.653918 L84.3841233,114.160685 C87.9232192,115.731493 90.7246849,118.716411 92.0661781,122.351055 L88.4812192,123.673438" id="Fill-249"></path>
            <path d="M58.5938219,123.673438 C57.6039452,121.00574 55.5477534,118.808137 52.9450274,117.653918 L54.496726,114.160685 C58.0358219,115.731493 60.8372877,118.716411 62.1787808,122.351055 L58.5938219,123.673438" id="Fill-250"></path>
            <path d="M41.433411,65.3968356 L37.6114932,65.3968356 C37.6114932,57.4396027 44.0858219,50.9614521 52.0430548,50.9614521 L52.0430548,54.7833699 C46.1916986,54.7833699 41.433411,59.5454795 41.433411,65.3968356" id="Fill-251"></path>
            <path d="M71.8520548,65.3968356 L68.030137,65.3968356 C68.030137,57.4396027 74.5044658,50.9614521 82.4616986,50.9614521 L82.4616986,54.7833699 C76.6103425,54.7833699 71.8520548,59.5454795 71.8520548,65.3968356" id="Fill-252"></path>
            <path d="M102.270699,65.3968356 L98.4487808,65.3968356 C98.4487808,57.4396027 104.919288,50.9614521 112.876521,50.9614521 L112.876521,54.7833699 C107.028986,54.7833699 102.270699,59.5454795 102.270699,65.3968356" id="Fill-253"></path>
            <path d="M41.433411,104.437726 L37.6114932,104.437726 C37.6114932,96.4804932 44.0858219,90.0023425 52.0430548,90.0023425 L52.0430548,93.8242603 C46.1916986,93.8242603 41.433411,98.5825479 41.433411,104.437726" id="Fill-254"></path>
            <path d="M71.8520548,104.437726 L68.030137,104.437726 C68.030137,96.4804932 74.5044658,90.0023425 82.4616986,90.0023425 L82.4616986,93.8242603 C76.6103425,93.8242603 71.8520548,98.5825479 71.8520548,104.437726" id="Fill-255"></path>
            <path d="M102.270699,104.437726 L98.4487808,104.437726 C98.4487808,96.4804932 104.919288,90.0023425 112.876521,90.0023425 L112.876521,93.8242603 C107.028986,93.8242603 102.270699,98.5825479 102.270699,104.437726" id="Fill-256"></path>
            <path d="M132.685521,104.437726 L128.863603,104.437726 C128.863603,96.4804932 135.337932,90.0023425 143.295164,90.0023425 L143.295164,93.8242603 C137.443808,93.8242603 132.685521,98.5825479 132.685521,104.437726" id="Fill-257"></path>
            <path d="M41.433411,143.470973 L37.6114932,143.470973 C37.6114932,135.51374 44.0858219,129.039411 52.0430548,129.039411 L52.0430548,132.861329 C46.1916986,132.861329 41.433411,137.619616 41.433411,143.470973" id="Fill-258"></path>
            <path d="M71.8520548,143.470973 L68.030137,143.470973 C68.030137,135.51374 74.5044658,129.039411 82.4616986,129.039411 L82.4616986,132.861329 C76.6103425,132.861329 71.8520548,137.619616 71.8520548,143.470973" id="Fill-259"></path>
            <path d="M102.270699,143.470973 L98.4487808,143.470973 C98.4487808,135.51374 104.919288,129.039411 112.876521,129.039411 L112.876521,132.861329 C107.028986,132.861329 102.270699,137.619616 102.270699,143.470973" id="Fill-260"></path>
            <path d="M132.685521,143.470973 L128.863603,143.470973 C128.863603,135.51374 135.337932,129.039411 143.295164,129.039411 L143.295164,132.861329 C137.443808,132.861329 132.685521,137.619616 132.685521,143.470973" id="Fill-261"></path>
            <path d="M192.735493,33.7933973 C192.628479,33.7933973 192.525288,33.804863 192.422096,33.8316164 L129.104384,49.9027808 C128.427904,50.078589 128.011315,50.7741781 128.183301,51.4506575 L133.327603,71.7182877 C133.411685,72.0469726 133.618068,72.3221507 133.912356,72.4979589 C134.202822,72.6737671 134.539151,72.7234521 134.875479,72.6393699 L198.18937,56.5682055 C198.869671,56.3923973 199.28626,55.7006301 199.114274,55.0203288 L193.969973,34.7526986 C193.882068,34.4240137 193.679507,34.1488356 193.385219,33.9730274 C193.182658,33.8545479 192.960986,33.7933973 192.735493,33.7933973 Z M134.554438,76.5033288 C133.652466,76.5033288 132.754315,76.258726 131.955534,75.7848082 C130.789849,75.0853973 129.960493,73.9770411 129.624164,72.6584795 L124.479863,52.3908493 C123.791918,49.6696438 125.439164,46.8911096 128.164192,46.1993425 L191.481904,30.1281781 C192.789,29.7842055 194.16489,29.990589 195.338219,30.69 C196.507726,31.385589 197.337082,32.4939452 197.673411,33.8125068 L202.81389,54.080137 C203.505658,56.8013425 201.854589,59.5798767 199.133384,60.2716438 L135.815671,76.3428082 C135.399082,76.4498219 134.974849,76.5033288 134.554438,76.5033288 L134.554438,76.5033288 Z" id="Fill-262"></path>
            <path d="M172.06274,94.1529452 L170.281726,87.1320822 C169.907178,85.6644658 170.583658,84.1548082 171.928973,83.4553973 L211.145671,63.0578219 L206.398849,44.3571781 L198.862027,46.268137 L197.921836,42.5646986 L206.009014,40.5123288 C207.736521,40.0498767 209.521356,41.1200137 209.964699,42.8589863 L214.959945,62.5571507 C215.315384,63.9559726 214.696233,65.4350548 213.457932,66.1650411 L174.099822,86.6352329 L175.762356,93.2127534 L172.06274,94.1529452" id="Fill-263"></path>
            <path d="M171.011712,96.5989726 L184.162932,148.412712 C184.201151,148.569411 184.361671,148.653493 184.51837,148.630562 L190.931548,147.002425 C191.027096,146.975671 191.084425,146.914521 191.111178,146.868658 L177.990534,94.8294247 L171.011712,96.5989726 Z M184.453397,152.460123 C182.615055,152.460123 180.933411,151.218 180.459493,149.360548 L166.368082,93.835726 L180.757603,90.1857945 L194.845192,145.702973 C195.12037,146.765466 194.959849,147.873822 194.398027,148.817836 C193.836205,149.765671 192.938055,150.438329 191.87174,150.705863 L185.458562,152.334 C185.126055,152.418082 184.785904,152.460123 184.453397,152.460123 L184.453397,152.460123 Z" id="Fill-264"></path>
        </g>
    </g>
</svg>