<?xml version="1.0" encoding="UTF-8"?>
<svg width="16px" height="16px" viewBox="0 0 16 16" version="1.1" xmlns="http://www.w3.org/2000/svg" xmlns:xlink="http://www.w3.org/1999/xlink">
    <title>icons/phone</title>
    <g id="Screendesign" stroke="none" stroke-width="1" fill="none" fill-rule="evenodd" stroke-linecap="round" stroke-linejoin="round">
        <g id="L-Fortbildung-Aktuelles-AktuelleMeldungendesVDI-Detail" transform="translate(-496.000000, -2072.000000)" stroke="#343434" stroke-width="1.2">
            <g id="_TEASER/ansprechpartner" transform="translate(138.000000, 1913.000000)">
                <g id="text" transform="translate(355.000000, 75.000000)">
                    <g id="icons/phone" transform="translate(4.000000, 85.000000)">
                        <path d="M13.9995604,10.4816857 L13.9995604,12.5892494 C14.0011694,12.9848707 13.8355818,13.3628365 13.5434779,13.6302909 C13.251374,13.8977453 12.8598253,14.0299013 12.4650244,13.9942918 C10.2989592,13.7593973 8.21830108,13.0206989 6.39023288,11.8375516 C4.68945182,10.7589454 3.24748638,9.31983634 2.16673933,7.62242432 C0.977106537,5.78968976 0.236773834,3.7030546 0.00571846787,1.53156533 C-0.0298481271,1.13876628 0.101642459,0.749134026 0.368070126,0.457846691 C0.634497792,0.166559356 1.01132823,0.000440487256 1.40651049,0 L3.51825727,0 C4.22489283,-0.00687194893 4.8271889,0.510076633 4.92608845,1.20840557 C5.01522036,1.88287263 5.18051835,2.54511158 5.41882936,3.1824902 C5.61221961,3.69594542 5.48852761,4.2747746 5.10206734,4.66480998 L4.20809454,5.55701193 C5.21015744,7.315806 6.66930315,8.77206133 8.43158809,9.77213926 L9.32556089,8.87993731 C9.71637042,8.49424257 10.2963485,8.37079559 10.8108228,8.56380276 C11.4494665,8.8016417 12.1130199,8.96661226 12.7888256,9.05556761 C13.4966568,9.15522749 14.0172921,9.76848093 13.9995604,10.4816857 Z" id="Path"></path>
                    </g>
                </g>
            </g>
        </g>
    </g>
</svg>