<?xml version="1.0" encoding="UTF-8"?>
<svg width="1440px" height="180px" viewBox="0 0 1440 180" version="1.1" xmlns="http://www.w3.org/2000/svg" xmlns:xlink="http://www.w3.org/1999/xlink">
    <title>_ATOMS/pattern-squares-v4svg</title>
    <g id="Screendesign" stroke="none" stroke-width="1" fill="none" fill-rule="evenodd">
        <g id="L-Fortbildung-Startseite-v5" transform="translate(0.000000, -694.000000)">
            <g id="_ATOMS/pattern-squares-v4" transform="translate(0.000000, 694.000000)">
                <rect id="background-50" fill="#7FC7EC" x="30" y="30" width="30" height="30"></rect>
                <rect id="background-80" fill="#33A5E1" x="60" y="60" width="30" height="30"></rect>
                <rect id="background-70" fill="#4CB0E4" x="120" y="30" width="30" height="30"></rect>
                <rect id="background-80" fill="#4CB0E4" x="30" y="90" width="30" height="30"></rect>
                <rect id="background-80-copy" fill="#7FC7EC" x="0" y="120" width="30" height="30"></rect>
                <rect id="background-10" fill="#E6F4FC" x="0" y="60" width="30" height="30"></rect>
                <rect id="background-10-copy-2" fill="#FFFFFF" x="150" y="0" width="30" height="30"></rect>
                <rect id="background-10-copy-154" fill="#33A5E1" x="330" y="0" width="30" height="30"></rect>
                <rect id="background-10-copy-157" fill="#008FD9" x="420" y="0" width="30" height="30"></rect>
                <rect id="background-10-copy-164" fill="#008FD9" x="630" y="0" width="30" height="30"></rect>
                <rect id="background-10-copy-167" fill="#FFFFFF" x="720" y="0" width="30" height="30"></rect>
                <rect id="background-10-copy-168" fill="#4CB0E4" x="750" y="0" width="30" height="30"></rect>
                <rect id="background-10-copy-169" fill="#008FD9" x="780" y="0" width="30" height="30"></rect>
                <rect id="background-10-copy-170" fill="#E6F4FC" x="810" y="0" width="30" height="30"></rect>
                <rect id="background-10-copy-172" fill="#4CB0E4" x="870" y="0" width="30" height="30"></rect>
                <rect id="background-10-copy-174" fill="#008FD9" x="930" y="0" width="30" height="30"></rect>
                <rect id="background-10-copy-177" fill="#008FD9" x="1020" y="0" width="30" height="30"></rect>
                <rect id="background-10-copy-178" fill="#FFFFFF" x="1050" y="0" width="30" height="30"></rect>
                <rect id="background-10-copy-180" fill="#FFFFFF" x="1110" y="0" width="30" height="30"></rect>
                <rect id="background-10-copy-184" fill="#FFFFFF" x="1230" y="0" width="30" height="30"></rect>
                <rect id="background-10-copy-186" fill="#E6F4FC" x="1290" y="0" width="30" height="30"></rect>
                <rect id="background-10-copy-187" fill="#FFFFFF" x="1320" y="0" width="30" height="30"></rect>
                <rect id="background-10-copy-188" fill="#008FD9" x="1350" y="0" width="30" height="30"></rect>
                <rect id="background-10-copy-190" fill="#FFFFFF" x="1410" y="0" width="30" height="30"></rect>
                <rect id="background-10-copy-3" fill="#008FD9" x="150" y="60" width="30" height="30"></rect>
                <rect id="background-10-copy-53" fill="#7FC7EC" x="240" y="60" width="30" height="30"></rect>
                <rect id="background-10-copy-55" fill="#008FD9" x="300" y="60" width="30" height="30"></rect>
                <rect id="background-10-copy-58" fill="#33A5E1" x="390" y="60" width="30" height="30"></rect>
                <rect id="background-10-copy-60" fill="#B3DEF4" x="450" y="60" width="30" height="30"></rect>
                <rect id="background-10-copy-62" fill="#008FD9" x="510" y="60" width="30" height="30"></rect>
                <rect id="background-10-copy-64" fill="#E6F4FC" x="570" y="60" width="30" height="30"></rect>
                <rect id="background-10-copy-66" fill="#008FD9" x="630" y="60" width="30" height="30"></rect>
                <rect id="background-10-copy-68" fill="#7FC7EC" x="690" y="60" width="30" height="30"></rect>
                <rect id="background-10-copy-71" fill="#008FD9" x="780" y="60" width="30" height="30"></rect>
                <rect id="background-10-copy-73" fill="#E6F4FC" x="840" y="60" width="30" height="30"></rect>
                <rect id="background-10-copy-75" fill="#33A5E1" x="900" y="60" width="30" height="30"></rect>
                <rect id="background-10-copy-77" fill="#7FC7EC" x="960" y="60" width="30" height="30"></rect>
                <rect id="background-10-copy-84" fill="#008FD9" x="1170" y="60" width="30" height="30"></rect>
                <rect id="background-10-copy-87" fill="#008FD9" x="1260" y="60" width="30" height="30"></rect>
                <rect id="background-10-copy-95" fill="#B3DEF4" x="1290" y="120" width="30" height="30"></rect>
                <rect id="background-10-copy-8" fill="#E6F4FC" x="150" y="30" width="30" height="30"></rect>
                <rect id="background-10-copy-13" fill="#E6F4FC" x="300" y="30" width="30" height="30"></rect>
                <rect id="background-10-copy-11" fill="#FFFFFF" x="240" y="30" width="30" height="30"></rect>
                <rect id="background-10-copy-12" fill="#008FD9" x="270" y="30" width="30" height="30"></rect>
                <rect id="background-10-copy-15" fill="#FFFFFF" x="360" y="30" width="30" height="30"></rect>
                <rect id="background-10-copy-16" fill="#008FD9" x="390" y="30" width="30" height="30"></rect>
                <rect id="background-10-copy-18" fill="#4CB0E4" x="450" y="30" width="30" height="30"></rect>
                <rect id="background-10-copy-20" fill="#FFFFFF" x="510" y="30" width="30" height="30"></rect>
                <rect id="background-10-copy-23" fill="#FFFFFF" x="600" y="30" width="30" height="30"></rect>
                <rect id="background-10-copy-25" fill="#7FC7EC" x="660" y="30" width="30" height="30"></rect>
                <rect id="background-10-copy-26" fill="#FFFFFF" x="690" y="30" width="30" height="30"></rect>
                <rect id="background-10-copy-28" fill="#E6F4FC" x="750" y="30" width="30" height="30"></rect>
                <rect id="background-10-copy-29" fill="#FFFFFF" x="780" y="30" width="30" height="30"></rect>
                <rect id="background-10-copy-30" fill="#008FD9" x="810" y="30" width="30" height="30"></rect>
                <rect id="background-10-copy-33" fill="#FFFFFF" x="900" y="30" width="30" height="30"></rect>
                <rect id="background-10-copy-38" fill="#7FC7EC" x="1050" y="30" width="30" height="30"></rect>
                <rect id="background-10-copy-39" fill="#FFFFFF" x="1080" y="30" width="30" height="30"></rect>
                <rect id="background-10-copy-41" fill="#7FC7EC" x="1140" y="30" width="30" height="30"></rect>
                <rect id="background-10-copy-43" fill="#FFFFFF" x="1200" y="30" width="30" height="30"></rect>
                <rect id="background-10-copy-44" fill="#008FD9" x="1230" y="30" width="30" height="30"></rect>
                <rect id="background-10-copy-45" fill="#FFFFFF" x="1260" y="30" width="30" height="30"></rect>
                <rect id="background-10-copy-47" fill="#33A5E1" x="1320" y="30" width="30" height="30"></rect>
                <rect id="background-10-copy-103" fill="#33A5E1" x="1320" y="90" width="30" height="30"></rect>
                <rect id="background-10-copy-48" fill="#E6F4FC" x="1350" y="30" width="30" height="30"></rect>
                <rect id="background-10-copy-49" fill="#FFFFFF" x="1380" y="30" width="30" height="30"></rect>
                <rect id="background-10-copy-105" fill="#008FD9" x="1380" y="90" width="30" height="30"></rect>
                <rect id="background-10-copy-50" fill="#008FD9" x="1410" y="30" width="30" height="30"></rect>
                <rect id="background-10-copy-4" fill="#008FD9" x="120" y="90" width="30" height="30"></rect>
                <rect id="background-10-copy-114" fill="#4CB0E4" x="180" y="90" width="30" height="30"></rect>
                <rect id="background-10-copy-115" fill="#008FD9" x="210" y="90" width="30" height="30"></rect>
                <rect id="background-10-copy-118" fill="#7FC7EC" x="300" y="90" width="30" height="30"></rect>
                <rect id="background-10-copy-119" fill="#008FD9" x="330" y="90" width="30" height="30"></rect>
                <rect id="background-10-copy-122" fill="#B3DEF4" x="420" y="90" width="30" height="30"></rect>
                <rect id="background-10-copy-124" fill="#008FD9" x="480" y="90" width="30" height="30"></rect>
                <rect id="background-10-copy-127" fill="#7FC7EC" x="570" y="90" width="30" height="30"></rect>
                <rect id="background-10-copy-134" fill="#7FC7EC" x="780" y="90" width="30" height="30"></rect>
                <rect id="background-10-copy-138" fill="#E6F4FC" x="900" y="90" width="30" height="30"></rect>
                <rect id="background-10-copy-141" fill="#7FC7EC" x="990" y="90" width="30" height="30"></rect>
                <rect id="background-10-copy-148" fill="#33A5E1" x="1200" y="90" width="30" height="30"></rect>
                <rect id="background-10-copy-6" fill="#4CB0E4" x="90" y="90" width="30" height="30"></rect>
                <rect id="background-10-copy-107" fill="#008FD9" x="90" y="120" width="30" height="30"></rect>
                <rect id="background-10-copy-110" fill="#33A5E1" x="30" y="150" width="30" height="30"></rect>
                <rect id="background-copy-18" fill="#E6F4FC" x="60" y="30" width="30" height="30"></rect>
                <rect id="background-40" fill="#99D2F0" x="90" y="0" width="30" height="30"></rect>
                <rect id="background-70" fill="#4CB0E4" x="0" y="0" width="30" height="30"></rect>
            </g>
        </g>
    </g>
</svg>