<?xml version="1.0" encoding="UTF-8"?>
<svg width="16px" height="16px" viewBox="0 0 16 16" version="1.1" xmlns="http://www.w3.org/2000/svg" xmlns:xlink="http://www.w3.org/1999/xlink">
    <title>icons/printer</title>
    <g id="Screendesign" stroke="none" stroke-width="1" fill="none" fill-rule="evenodd" stroke-linecap="round" stroke-linejoin="round">
        <g id="L-Fortbildung-Kontakt" transform="translate(-896.000000, -2349.000000)" stroke="#343434" stroke-width="1.2">
            <g id="Formular" transform="translate(137.000000, 2093.000000)">
                <g id="text" transform="translate(760.000000, 117.000000)">
                    <g id="Group-6" transform="translate(0.000000, 133.000000)">
                        <g id="Group" transform="translate(0.000000, 7.000000)">
                            <polyline id="Path" points="2.8 4.9 2.8 -2.22044605e-14 11.2 -2.22044605e-14 11.2 4.9"></polyline>
                            <path d="M2.8,11.2 L1.4,11.2 C0.62680135,11.2 0,10.5731986 0,9.8 L0,6.3 C0,5.52680135 0.62680135,4.9 1.4,4.9 L12.6,4.9 C13.3731986,4.9 14,5.52680135 14,6.3 L14,9.8 C14,10.5731986 13.3731986,11.2 12.6,11.2 L11.2,11.2" id="Path"></path>
                            <rect id="Rectangle" x="2.8" y="8.4" width="8.4" height="5.6"></rect>
                        </g>
                    </g>
                </g>
            </g>
        </g>
    </g>
</svg>