<?xml version="1.0" encoding="UTF-8"?>
<svg width="24px" height="24px" viewBox="0 0 24 24" version="1.1" xmlns="http://www.w3.org/2000/svg" xmlns:xlink="http://www.w3.org/1999/xlink">
    <title>search-icon-calendar</title>
    <g id="search-icon-calendar" stroke="none" stroke-width="1" fill="none" fill-rule="evenodd">
        <path d="M18,4 L18,3 C18,2.44771525 17.5522847,2 17,2 C16.4477153,2 16,2.44771525 16,3 L16,4 L16,4 L8,4 L8,3 C8,2.44771525 7.55228475,2 7,2 C6.44771525,2 6,2.44771525 6,3 L6,4 L6,4 L5,4 C3.89,4 3.01,4.9 3.01,6 L3,20 C3,21.1 3.89,22 5,22 L19,22 C20.1,22 21,21.1 21,20 L21,6 C21,4.9 20.1,4 19,4 L18,4 Z M5,20 L5,9 L19,9 L19,20 L5,20 Z M8,11 L11,11 C11.5522847,11 12,11.4477153 12,12 L12,15 C12,15.5522847 11.5522847,16 11,16 L8,16 C7.44771525,16 7,15.5522847 7,15 L7,12 C7,11.4477153 7.44771525,11 8,11 Z" id="Mask" fill="#002857"></path>
    </g>
</svg>