<?xml version="1.0" encoding="UTF-8"?>
<svg width="18px" height="18px" viewBox="0 0 18 18" version="1.1" xmlns="http://www.w3.org/2000/svg" xmlns:xlink="http://www.w3.org/1999/xlink">
    <title>search-icon-magnify</title>
    <g id="Screendesign" stroke="none" stroke-width="1" fill="none" fill-rule="evenodd">
        <g id="L-VDIV-Campus-Veranstaltungskalender" transform="translate(-253.000000, -644.000000)" fill="#002857">
            <g id="Group-4" transform="translate(0.000000, 583.000000)">
                <g id="Select-Copy-7" transform="translate(237.000000, 45.000000)">
                    <g id="Mask" transform="translate(13.000000, 13.000000)">
                        <path d="M14.71,14 L14.43,13.73 C15.41,12.59 16,11.11 16,9.5 C16,5.91 13.09,3 9.5,3 C5.91,3 3,5.91 3,9.5 C3,13.09 5.91,16 9.5,16 C11.11,16 12.59,15.41 13.73,14.43 L14,14.71 L14,15.5 L18.2928939,19.7843081 C18.6835323,20.1741652 19.3161514,20.1738486 19.7063993,19.7836007 L19.7836007,19.7063993 C20.1738486,19.3161514 20.1741652,18.6835323 19.7843081,18.2928939 L15.5,14 L15.5,14 L14.71,14 Z M5,9.5 C5,7.01 7.01,5 9.5,5 C11.99,5 14,7.01 14,9.5 C14,11.99 11.99,14 9.5,14 C7.01,14 5,11.99 5,9.5 Z"></path>
                    </g>
                </g>
            </g>
        </g>
    </g>
</svg>