<?xml version="1.0" encoding="UTF-8"?>
<svg width="18px" height="18px" viewBox="0 0 18 18" version="1.1" xmlns="http://www.w3.org/2000/svg" xmlns:xlink="http://www.w3.org/1999/xlink">
    <title>icons/sharing-linkedin-in</title>
    <g id="Symbols" stroke="none" stroke-width="1" fill="none" fill-rule="evenodd">
        <g id="_MOLECULE/Sharing" transform="translate(-90.000000, 0.000000)">
            <g id="icons/sharing-linkedin-in" transform="translate(90.000000, 0.000000)">
                <rect id="Rectangle" fill="#FFFFFF" x="0" y="0" width="18" height="18"></rect>
                <path d="M5.35750948,16 L2.24771256,16 L2.24771256,5.98549107 L5.35750948,5.98549107 L5.35750948,16 Z M3.80093729,4.61941964 C2.80673957,4.61941964 2,3.79575893 2,2.80133929 C2,1.80691964 2.80673957,1 3.80093729,1 C4.79513501,1 5.60187458,1.80691964 5.60187458,2.80133929 C5.60187458,3.79575893 4.79513501,4.61941964 3.80093729,4.61941964 Z M16.9966525,16 L13.8935505,16 L13.8935505,11.125 C13.8935505,9.96316964 13.8701183,8.47321429 12.2767239,8.47321429 C10.6598973,8.47321429 10.4121848,9.73549107 10.4121848,11.0412946 L10.4121848,16 L7.30573533,16 L7.30573533,5.98549107 L10.2883285,5.98549107 L10.2883285,7.3515625 L10.3318456,7.3515625 C10.7469315,6.56473214 11.761214,5.734375 13.2742691,5.734375 C16.4208882,5.734375 17,7.80691964 17,10.4988839 L17,16 L16.9966525,16 Z" id="Shape" fill="#85959D" fill-rule="nonzero"></path>
            </g>
        </g>
    </g>
</svg>