<?xml version="1.0" encoding="UTF-8"?>
<svg width="18px" height="18px" viewBox="0 0 18 18" version="1.1" xmlns="http://www.w3.org/2000/svg" xmlns:xlink="http://www.w3.org/1999/xlink">
    <title>icons/sharing-xing</title>
    <g id="Symbols" stroke="none" stroke-width="1" fill="none" fill-rule="evenodd">
        <g id="_MOLECULE/Sharing" transform="translate(-122.000000, 0.000000)">
            <g id="Group-2" transform="translate(90.000000, 0.000000)">
                <g id="icons/sharing-xing" transform="translate(32.000000, 0.000000)">
                    <rect id="Rectangle-Copy" fill="#FFFFFF" x="0" y="0" width="18" height="18"></rect>
                    <path d="M8.50757784,7.95849141 C8.44663633,8.06895782 7.65439673,9.44476679 6.13424466,12.0926133 C5.96834833,12.370453 5.76859561,12.5110466 5.53498649,12.5110466 L3.33093527,12.5110466 C3.07024104,12.5110466 2.92127291,12.2599866 3.04315593,12.0290114 L5.37924708,7.96853381 C5.38601836,7.96853381 5.38601836,7.96518634 5.37924708,7.95849141 L3.8929514,5.42780629 C3.74736891,5.16670386 3.90310832,4.95581343 4.18073075,4.95581343 L6.38478197,4.95581343 C6.63193364,4.95581343 6.835072,5.09305958 6.99419705,5.36420442 L8.50757784,7.95849141 Z M15.9525988,2.47199286 L11.0772781,10.9410846 L11.0772781,10.951127 L14.1785238,16.5280071 C14.3105637,16.7656773 14.185295,17 13.8907444,17 L11.6833076,17 C11.425999,17 11.2228606,16.8661013 11.0738925,16.591609 L7.94556171,10.951127 C8.05728781,10.7569739 9.68916598,7.91162687 12.8479675,2.40839098 C13.0037069,2.13724615 13.200074,2 13.4404544,2 L15.6648194,2 C15.9356706,2 16.0812531,2.22428029 15.9525988,2.47199286 L15.9525988,2.47199286 Z" id="Shape" fill="#85959D" fill-rule="nonzero"></path>
                </g>
            </g>
        </g>
    </g>
</svg>