<?xml version="1.0" encoding="UTF-8"?>
<svg width="18px" height="18px" viewBox="0 0 18 18" version="1.1" xmlns="http://www.w3.org/2000/svg" xmlns:xlink="http://www.w3.org/1999/xlink">
    <title>icons/sharing-twitter</title>
    <g id="Symbols" stroke="none" stroke-width="1" fill="none" fill-rule="evenodd">
        <g id="_MOLECULE/Sharing" transform="translate(-187.000000, 0.000000)">
            <g id="Group-2" transform="translate(90.000000, 0.000000)">
                <g id="icons/sharing-twitter" transform="translate(97.000000, 0.000000)">
                    <rect id="Rectangle-Copy-3" fill="#FFFFFF" x="0" y="0" width="18" height="18"></rect>
                    <path d="M16.1497896,4.73826764 C16.1612155,4.9023223 16.1612155,5.06641304 16.1612155,5.23046771 C16.1612155,10.2343514 12.4492986,16 5.66499479,16 C3.57487725,16 1.63326029,15.3788792 0,14.3008006 C0.296966004,14.3359345 0.582471025,14.3476579 0.890862855,14.3476579 C2.61545944,14.3476579 4.20305157,13.7500198 5.47082606,12.7304857 C3.8489916,12.6953157 2.48984566,11.6054776 2.02156258,10.1054668 C2.25000879,10.1406008 2.47841984,10.1640475 2.71829187,10.1640475 C3.04950019,10.1640475 3.38074367,10.1171541 3.68910035,10.0351628 C1.99874609,9.68357073 0.730936449,8.16014929 0.730936449,6.32030579 L0.730936449,6.27344849 C1.22203602,6.55470052 1.79315154,6.73047853 2.39843906,6.75388914 C1.40477892,6.07418772 0.753788101,4.91404565 0.753788101,3.60153618 C0.753788101,2.89842414 0.936495846,2.25389275 1.2563135,1.69138869 C3.07231669,3.98826223 5.80203438,5.48823698 8.86292525,5.65232771 C8.80583127,5.37107569 8.7715538,5.07813639 8.7715538,4.78516101 C8.7715538,2.69919945 10.4162399,1 12.4606541,1 C13.5228341,1 14.4822167,1.45703004 15.1560944,2.19531211 C15.9898281,2.03125744 16.7893195,1.71483538 17.4974746,1.28125203 C17.2233251,2.16017815 16.6408541,2.89846021 15.8756401,3.36717752 C16.6180376,3.28518626 17.3375833,3.07420215 18,2.78126285 C17.4975449,3.53123219 16.8693354,4.1991742 16.1497896,4.73826764 Z" id="Path" fill="#85959D" fill-rule="nonzero"></path>
                </g>
            </g>
        </g>
    </g>
</svg>