<?xml version="1.0" encoding="UTF-8"?>
<svg width="18px" height="18px" viewBox="0 0 18 18" version="1.1" xmlns="http://www.w3.org/2000/svg" xmlns:xlink="http://www.w3.org/1999/xlink">
    <title>icons/sharing-whatsapp</title>
    <g id="Symbols" stroke="none" stroke-width="1" fill="none" fill-rule="evenodd">
        <g id="_MOLECULE/Sharing" transform="translate(-223.000000, 0.000000)">
            <g id="Group-2" transform="translate(90.000000, 0.000000)">
                <g id="icons/sharing-whatsapp" transform="translate(133.000000, 0.000000)">
                    <rect id="Rectangle-Copy-4" fill="#FFFFFF" x="0" y="0" width="18" height="18"></rect>
                    <path d="M13.7533482,3.1796875 C12.3504464,1.7734375 10.4821429,1 8.49665179,1 C4.3984375,1 1.06361607,4.33482143 1.06361607,8.43303571 C1.06361607,9.7421875 1.40513393,11.0212054 2.0546875,12.1495536 L1,16 L4.94084821,14.9654018 C6.02566964,15.5580357 7.24776786,15.8694196 8.49330357,15.8694196 L8.49665179,15.8694196 C12.5915179,15.8694196 16,12.5345982 16,8.43638393 C16,6.45089286 15.15625,4.5859375 13.7533482,3.1796875 Z M8.49665179,14.6171875 C7.38504464,14.6171875 6.296875,14.3191964 5.34933036,13.7566964 L5.125,13.6227679 L2.78794643,14.2354911 L3.41071429,11.9553571 L3.26339286,11.7209821 C2.64397321,10.7366071 2.31919643,9.6015625 2.31919643,8.43303571 C2.31919643,5.02790179 5.09151786,2.25558036 8.5,2.25558036 C10.1506696,2.25558036 11.7008929,2.8984375 12.8660714,4.06696429 C14.03125,5.23549107 14.7477679,6.78571429 14.7444313,8.43638393 C14.7444313,11.8448661 11.9017857,14.6171875 8.49665179,14.6171875 Z M11.8850446,9.98995536 C11.7008929,9.89620536 10.7868304,9.44754464 10.6160714,9.38727679 C10.4453125,9.32366071 10.3214286,9.29352679 10.1975446,9.48102679 C10.0736607,9.66852679 9.71875,10.0837054 9.60825893,10.2109375 C9.50111607,10.3348214 9.390625,10.3515625 9.20647321,10.2578125 C8.11495536,9.71205357 7.3984375,9.28348214 6.67857143,8.04799107 C6.48772321,7.71986607 6.86941964,7.74330357 7.22433036,7.03348214 C7.28459821,6.90959821 7.25446429,6.80245536 7.20758929,6.70870536 C7.16071429,6.61495536 6.7890625,5.70089286 6.63504464,5.32924107 C6.484375,4.96763393 6.33035714,5.01785714 6.21651786,5.01116071 C6.109375,5.00446429 5.98549107,5.00446429 5.86160714,5.00446429 C5.73772321,5.00446429 5.53683036,5.05133929 5.36607143,5.23549107 C5.1953125,5.42299107 4.71651786,5.87165179 4.71651786,6.78571429 C4.71651786,7.69977679 5.3828125,8.58370536 5.47321429,8.70758929 C5.56696429,8.83147321 6.78236607,10.7064732 8.64732143,11.5133929 C9.82589286,12.0223214 10.2879464,12.0658482 10.8772321,11.9787946 C11.2354911,11.9252232 11.9754464,11.5301339 12.1294643,11.0948661 C12.2834821,10.6595982 12.2834821,10.2879464 12.2366071,10.2109375 C12.1930804,10.1272321 12.0691964,10.0803571 11.8850446,9.98995536 Z" id="Shape" fill="#85959D" fill-rule="nonzero"></path>
                </g>
            </g>
        </g>
    </g>
</svg>