<?xml version="1.0" encoding="UTF-8" standalone="no"?>
<!DOCTYPE svg PUBLIC "-//W3C//DTD SVG 1.1//EN" "http://www.w3.org/Graphics/SVG/1.1/DTD/svg11.dtd">
<svg version="1.1" xmlns="http://www.w3.org/2000/svg" xmlns:xlink="http://www.w3.org/1999/xlink" preserveAspectRatio="xMidYMid meet" viewBox="0 0 602 70" width="602" height="70"><defs><path d="M0.7 0L10.7 0L10.7 10L0.7 10L0.7 0Z" id="eoavxkDAQ"></path><path d="M10.7 10L20.7 10L20.7 20L10.7 20L10.7 10Z" id="d7vQXf7LW2"></path><path d="M20.7 20L30.7 20L30.7 30L20.7 30L20.7 20Z" id="c20K7JKPp0"></path><path d="M5.7 42.03L15.7 42.03L15.7 52.03L5.7 52.03L5.7 42.03Z" id="e1erXZZ7ky"></path><path d="M40.7 40L50.7 40L50.7 50L40.7 50L40.7 40Z" id="d1m8UXy6u6"></path><path d="M50.7 50L60.7 50L60.7 60L50.7 60L50.7 50Z" id="hrwrZZ7Hx"></path><path d="M30.7 0L40.7 0L40.7 10L30.7 10L30.7 0Z" id="d4KOQFpwsS"></path><path d="M40.7 10L50.7 10L50.7 20L40.7 20L40.7 10Z" id="d3f5NUpeYb"></path><path d="M50.7 20L60.7 20L60.7 30L50.7 30L50.7 20Z" id="bCW7omh23"></path><path d="M60.7 30L70.7 30L70.7 40L60.7 40L60.7 30Z" id="a2o4T2iyX"></path><path d="M103.96 12.4L113.96 12.4L113.96 22.4L103.96 22.4L103.96 12.4Z" id="b6AVxAvUN"></path><path d="M80.7 50L90.7 50L90.7 60L80.7 60L80.7 50Z" id="d4owKrRmNk"></path><path d="M62.21 0L72.21 0L72.21 10L62.21 10L62.21 0Z" id="b39XxEjVlk"></path><path d="M72.21 10L82.21 10L82.21 20L72.21 20L72.21 10Z" id="i1b31KcbuG"></path><path d="M82.21 20L92.21 20L92.21 30L82.21 30L82.21 20Z" id="cdkJXIXUS"></path><path d="M40.7 10L50.7 10L50.7 20L40.7 20L40.7 10Z" id="bjz6cP3kM"></path><path d="M135.7 30L145.7 30L145.7 40L135.7 40L135.7 30Z" id="c195zHkwe"></path><path d="M187.45 5L197.45 5L197.45 15L187.45 15L187.45 5Z" id="azwgHPYMP"></path><path d="M197.45 15L207.45 15L207.45 25L197.45 25L197.45 15Z" id="dqAyfNQCo"></path><path d="M207.45 25L217.45 25L217.45 35L207.45 35L207.45 25Z" id="d3ZOZaSzPQ"></path><path d="M227.45 45L237.45 45L237.45 55L227.45 55L227.45 45Z" id="bfXrt4DAb"></path><path d="M217.45 32.17L227.45 32.17L227.45 42.17L217.45 42.17L217.45 32.17Z" id="b4M0dEEVrz"></path><path d="M247.45 55L237.45 55L237.45 65L247.45 65L247.45 55Z" id="c1EXifeYRc"></path><path d="M427.98 35L417.98 35L417.98 45L427.98 45L427.98 35Z" id="b1DojAz7PZ"></path><path d="M328.21 53.06L338.21 53.06L338.21 63.06L328.21 63.06L328.21 53.06Z" id="bxeUVr4G"></path><path d="M545.7 45L555.7 45L555.7 55L545.7 55L545.7 45Z" id="a1P16M93QP"></path><path d="M380.7 20L390.7 20L390.7 30L380.7 30L380.7 20Z" id="aXcXIf7eG"></path><path d="M300.7 25L310.7 25L310.7 35L300.7 35L300.7 25Z" id="b1upjGhwQn"></path><path d="M487.87 53.02L497.87 53.02L497.87 63.02L487.87 63.02L487.87 53.02Z" id="a1dynWji8K"></path><path d="M507.7 20L517.7 20L517.7 30L507.7 30L507.7 20Z" id="b1ioodGLdN"></path><path d="M352.12 43.01L362.12 43.01L362.12 53.01L352.12 53.01L352.12 43.01Z" id="avWQ4uPMM"></path><path d="M282.17 51.6L292.17 51.6L292.17 61.6L282.17 61.6L282.17 51.6Z" id="c4wNr1wkv"></path><path d="M445.7 20L455.7 20L455.7 30L445.7 30L445.7 20Z" id="aABJyjPNU"></path><path d="M177.63 55L187.63 55L187.63 65L177.63 65L177.63 55Z" id="a1YVDeFAp"></path><path d="M330.7 8.01L340.7 8.01L340.7 18.01L330.7 18.01L330.7 8.01Z" id="d1hf35HZm"></path><path d="M400.7 57.63L410.7 57.63L410.7 67.63L400.7 67.63L400.7 57.63Z" id="cBkjtm1M"></path><path d="M50.7 50L60.7 50L60.7 60L50.7 60L50.7 50Z" id="dk8MGgNuM"></path><path d="M60.7 60L70.7 60L70.7 70L60.7 70L60.7 60Z" id="c1FvDK4dc"></path><path d="M488.7 5L498.7 5L498.7 15L488.7 15L488.7 5Z" id="almqjGr2u"></path><path d="M592.3 10L602.3 10L602.3 20L592.3 20L592.3 10Z" id="c34LENHaO"></path><path d="M565.7 47.64L575.7 47.64L575.7 57.64L565.7 57.64L565.7 47.64Z" id="d4arpzef1"></path><path d="M590.7 36.93L600.7 36.93L600.7 46.93L590.7 46.93L590.7 36.93Z" id="bgl3aL9UK"></path><path d="M528.19 15L538.19 15L538.19 25L528.19 25L528.19 15Z" id="a1JRPXG8t"></path><path d="M538.89 30L548.89 30L548.89 40L538.89 40L538.89 30Z" id="dWFYJxkmY"></path><path d="M440.7 35L450.7 35L450.7 45L440.7 45L440.7 35Z" id="bpeYX4jJi"></path><path d="M115.7 5L125.7 5L125.7 15L115.7 15L115.7 5Z" id="b1NBF5fhF"></path><path d="M125.7 46.69L135.7 46.69L135.7 56.69L125.7 56.69L125.7 46.69Z" id="dvHgHnu7y"></path><path d="M213.07 5L223.07 5L223.07 15L213.07 15L213.07 5Z" id="b3L354v3FR"></path><path d="M260.7 12.21L270.7 12.21L270.7 22.21L260.7 22.21L260.7 12.21Z" id="aj7rYRFtl"></path><path d="M305.7 10L315.7 10L315.7 20L305.7 20L305.7 10Z" id="bZuraRC2"></path><path d="M477.99 35L487.99 35L487.99 45L477.99 45L477.99 35Z" id="nqJMIPm59"></path><path d="M430.7 15L440.7 15L440.7 25L430.7 25L430.7 15Z" id="a21jL2sNQh"></path><path d="M374.16 40L384.16 40L384.16 50L374.16 50L374.16 40Z" id="e4Q1W7KBAT"></path><path d="M70.7 40L80.7 40L80.7 50L70.7 50L70.7 40Z" id="b4beIQ0dnp"></path><path d="M80.7 60L90.7 60L90.7 50L80.7 50L80.7 60Z" id="ddYryMAeo"></path><path d="M153.68 45L163.68 45L163.68 35L153.68 35L153.68 45Z" id="blhLSgpqy"></path><path d="M95.7 40L105.7 40L105.7 50L95.7 50L95.7 40Z" id="h24cVxwhlx"></path><path d="M130.7 7.21L140.7 7.21L140.7 17.21L130.7 17.21L130.7 7.21Z" id="b2w9cXt3s"></path><path d="M177.93 41.79L187.93 41.79L187.93 51.79L177.93 51.79L177.93 41.79Z" id="ffJsphX5M"></path><path d="M235.7 10L245.7 10L245.7 20L235.7 20L235.7 10Z" id="b7IVwic2"></path><path d="M110.7 35L120.7 35L120.7 45L110.7 45L110.7 35Z" id="bBu0jmiz1"></path><path d="M363.69 15L373.69 15L373.69 25L363.69 25L363.69 15Z" id="b1PENA2Pi"></path><path d="M405.7 13.25L415.7 13.25L415.7 23.25L405.7 23.25L405.7 13.25Z" id="dprJzFiCr"></path><path d="M473.56 15L483.56 15L483.56 25L473.56 25L473.56 15Z" id="a1hrBkCxes"></path><path d="M559.27 5L569.27 5L569.27 15L559.27 15L559.27 5Z" id="b3pJvTXMX"></path><path d="M568.56 20L578.56 20L578.56 30L568.56 30L568.56 20Z" id="ezyfVgfJG"></path><path d="M332.32 28.48L342.32 28.48L342.32 38.48L332.32 38.48L332.32 28.48Z" id="bmj7mAo45"></path><path d="M268.02 40L278.02 40L278.02 50L268.02 50L268.02 40Z" id="baS2Z34YA"></path><path d="M280.7 15L290.7 15L290.7 25L280.7 25L280.7 15Z" id="b3bjR7Qt"></path><path d="M162.77 16.73L172.77 16.73L172.77 26.73L162.77 26.73L162.77 16.73Z" id="cNmSVaxrK"></path><path d="M245.7 25L255.7 25L255.7 35L245.7 35L245.7 25Z" id="a1Goi3YvcM"></path></defs><g><g><g><use xlink:href="#eoavxkDAQ" opacity="1" fill="#4cb0e4" fill-opacity="1"></use></g><g><use xlink:href="#d7vQXf7LW2" opacity="1" fill="#4cb0e4" fill-opacity="1"></use></g><g><use xlink:href="#c20K7JKPp0" opacity="1" fill="#4cb0e4" fill-opacity="1"></use></g><g><use xlink:href="#e1erXZZ7ky" opacity="1" fill="#4cb0e4" fill-opacity="1"></use></g><g><use xlink:href="#d1m8UXy6u6" opacity="1" fill="#4cb0e4" fill-opacity="1"></use></g><g><use xlink:href="#hrwrZZ7Hx" opacity="1" fill="#4cb0e4" fill-opacity="1"></use></g><g><use xlink:href="#d4KOQFpwsS" opacity="1" fill="#7fc7ec" fill-opacity="1"></use></g><g><use xlink:href="#d3f5NUpeYb" opacity="1" fill="#7fc7ec" fill-opacity="1"></use></g><g><use xlink:href="#bCW7omh23" opacity="1" fill="#7fc7ec" fill-opacity="1"></use></g><g><use xlink:href="#a2o4T2iyX" opacity="1" fill="#7fc7ec" fill-opacity="1"></use></g><g><use xlink:href="#b6AVxAvUN" opacity="1" fill="#7fc7ec" fill-opacity="1"></use></g><g><use xlink:href="#d4owKrRmNk" opacity="1" fill="#7fc7ec" fill-opacity="1"></use></g><g><use xlink:href="#b39XxEjVlk" opacity="1" fill="#7fc7ec" fill-opacity="1"></use></g><g><use xlink:href="#i1b31KcbuG" opacity="1" fill="#7fc7ec" fill-opacity="1"></use></g><g><use xlink:href="#cdkJXIXUS" opacity="1" fill="#7fc7ec" fill-opacity="1"></use></g><g><use xlink:href="#bjz6cP3kM" opacity="1" fill="#7fc7ec" fill-opacity="1"></use></g><g><use xlink:href="#c195zHkwe" opacity="1" fill="#7fc7ec" fill-opacity="1"></use></g><g><use xlink:href="#azwgHPYMP" opacity="1" fill="#7fc7ec" fill-opacity="1"></use></g><g><use xlink:href="#dqAyfNQCo" opacity="1" fill="#7fc7ec" fill-opacity="1"></use></g><g><use xlink:href="#d3ZOZaSzPQ" opacity="1" fill="#7fc7ec" fill-opacity="1"></use></g><g><use xlink:href="#bfXrt4DAb" opacity="1" fill="#7fc7ec" fill-opacity="1"></use></g><g><use xlink:href="#b4M0dEEVrz" opacity="1" fill="#7fc7ec" fill-opacity="1"></use></g><g><use xlink:href="#c1EXifeYRc" opacity="1" fill="#7fc7ec" fill-opacity="1"></use></g><g><use xlink:href="#b1DojAz7PZ" opacity="1" fill="#7fc7ec" fill-opacity="1"></use></g><g><use xlink:href="#bxeUVr4G" opacity="1" fill="#7fc7ec" fill-opacity="1"></use></g><g><use xlink:href="#a1P16M93QP" opacity="1" fill="#7fc7ec" fill-opacity="1"></use></g><g><use xlink:href="#aXcXIf7eG" opacity="1" fill="#7fc7ec" fill-opacity="1"></use></g><g><use xlink:href="#b1upjGhwQn" opacity="1" fill="#7fc7ec" fill-opacity="1"></use></g><g><use xlink:href="#a1dynWji8K" opacity="1" fill="#7fc7ec" fill-opacity="1"></use></g><g><use xlink:href="#b1ioodGLdN" opacity="1" fill="#7fc7ec" fill-opacity="1"></use></g><g><use xlink:href="#avWQ4uPMM" opacity="1" fill="#7fc7ec" fill-opacity="1"></use></g><g><use xlink:href="#c4wNr1wkv" opacity="1" fill="#7fc7ec" fill-opacity="1"></use></g><g><use xlink:href="#aABJyjPNU" opacity="1" fill="#7fc7ec" fill-opacity="1"></use></g><g><use xlink:href="#a1YVDeFAp" opacity="1" fill="#7fc7ec" fill-opacity="1"></use></g><g><use xlink:href="#d1hf35HZm" opacity="1" fill="#7fc7ec" fill-opacity="1"></use></g><g><use xlink:href="#cBkjtm1M" opacity="1" fill="#7fc7ec" fill-opacity="1"></use></g><g><use xlink:href="#dk8MGgNuM" opacity="1" fill="#4cb0e4" fill-opacity="1"></use></g><g><use xlink:href="#c1FvDK4dc" opacity="1" fill="#4cb0e4" fill-opacity="1"></use></g><g><use xlink:href="#almqjGr2u" opacity="1" fill="#4cb0e4" fill-opacity="1"></use></g><g><use xlink:href="#c34LENHaO" opacity="1" fill="#4cb0e4" fill-opacity="1"></use></g><g><use xlink:href="#d4arpzef1" opacity="1" fill="#4cb0e4" fill-opacity="1"></use></g><g><use xlink:href="#bgl3aL9UK" opacity="1" fill="#4cb0e4" fill-opacity="1"></use></g><g><use xlink:href="#a1JRPXG8t" opacity="1" fill="#4cb0e4" fill-opacity="1"></use></g><g><use xlink:href="#dWFYJxkmY" opacity="1" fill="#4cb0e4" fill-opacity="1"></use></g><g><use xlink:href="#bpeYX4jJi" opacity="1" fill="#4cb0e4" fill-opacity="1"></use></g><g><use xlink:href="#b1NBF5fhF" opacity="1" fill="#4cb0e4" fill-opacity="1"></use></g><g><use xlink:href="#dvHgHnu7y" opacity="1" fill="#4cb0e4" fill-opacity="1"></use></g><g><use xlink:href="#b3L354v3FR" opacity="1" fill="#4cb0e4" fill-opacity="1"></use></g><g><use xlink:href="#aj7rYRFtl" opacity="1" fill="#4cb0e4" fill-opacity="1"></use></g><g><use xlink:href="#bZuraRC2" opacity="1" fill="#4cb0e4" fill-opacity="1"></use></g><g><use xlink:href="#nqJMIPm59" opacity="1" fill="#4cb0e4" fill-opacity="1"></use></g><g><use xlink:href="#a21jL2sNQh" opacity="1" fill="#4cb0e4" fill-opacity="1"></use></g><g><use xlink:href="#e4Q1W7KBAT" opacity="1" fill="#4cb0e4" fill-opacity="1"></use></g><g><use xlink:href="#b4beIQ0dnp" opacity="1" fill="#7fc7ec" fill-opacity="1"></use></g><g><use xlink:href="#ddYryMAeo" opacity="1" fill="#7fc7ec" fill-opacity="1"></use></g><g><use xlink:href="#blhLSgpqy" opacity="1" fill="#7fc7ec" fill-opacity="1"></use></g><g><use xlink:href="#h24cVxwhlx" opacity="1" fill="#7fc7ec" fill-opacity="1"></use></g><g><use xlink:href="#b2w9cXt3s" opacity="1" fill="#7fc7ec" fill-opacity="1"></use></g><g><use xlink:href="#ffJsphX5M" opacity="1" fill="#7fc7ec" fill-opacity="1"></use></g><g><use xlink:href="#b7IVwic2" opacity="1" fill="#7fc7ec" fill-opacity="1"></use></g><g><use xlink:href="#bBu0jmiz1" opacity="1" fill="#7fc7ec" fill-opacity="1"></use></g><g><use xlink:href="#b1PENA2Pi" opacity="1" fill="#7fc7ec" fill-opacity="1"></use></g><g><use xlink:href="#dprJzFiCr" opacity="1" fill="#7fc7ec" fill-opacity="1"></use></g><g><use xlink:href="#a1hrBkCxes" opacity="1" fill="#7fc7ec" fill-opacity="1"></use></g><g><use xlink:href="#b3pJvTXMX" opacity="1" fill="#7fc7ec" fill-opacity="1"></use></g><g><use xlink:href="#ezyfVgfJG" opacity="1" fill="#7fc7ec" fill-opacity="1"></use></g><g><use xlink:href="#bmj7mAo45" opacity="1" fill="#7fc7ec" fill-opacity="1"></use></g><g><use xlink:href="#baS2Z34YA" opacity="1" fill="#7fc7ec" fill-opacity="1"></use></g><g><use xlink:href="#b3bjR7Qt" opacity="1" fill="#7fc7ec" fill-opacity="1"></use></g><g><use xlink:href="#cNmSVaxrK" opacity="1" fill="#7fc7ec" fill-opacity="1"></use></g><g><use xlink:href="#a1Goi3YvcM" opacity="1" fill="#7fc7ec" fill-opacity="1"></use></g></g></g></svg>