<?xml version="1.0" encoding="UTF-8"?>
<svg width="50px" height="50px" viewBox="0 0 50 50" version="1.1" xmlns="http://www.w3.org/2000/svg" xmlns:xlink="http://www.w3.org/1999/xlink">
    <title>icons/xing</title>
    <g id="Symbols" stroke="none" stroke-width="1" fill="none" fill-rule="evenodd">
        <g id="_MOLECULES/slider-some" transform="translate(-798.000000, 0.000000)" fill="#008FD9" fill-rule="nonzero">
            <g id="Group-2" transform="translate(392.000000, 0.000000)">
                <g id="icons/xing" transform="translate(406.000000, 0.000000)">
                    <path d="M44.6428571,0 L5.35714286,0 C2.39955357,0 0,2.39955357 0,5.35714286 L0,44.6428571 C0,47.6004464 2.39955357,50 5.35714286,50 L44.6428571,50 C47.6004464,50 50,47.6004464 50,44.6428571 L50,5.35714286 C50,2.39955357 47.6004464,0 44.6428571,0 Z M15.6696429,32.1651786 L10.46875,32.1651786 C9.85491071,32.1651786 9.49776786,31.5736607 9.79910714,31.015625 L15.3013393,21.3392857 C15.3125,21.3392857 15.3125,21.328125 15.3013393,21.3169643 L11.796875,15.2901786 C11.4620536,14.6651786 11.8191964,14.1629464 12.4665179,14.1629464 L17.6674107,14.1629464 C18.2477679,14.1629464 18.7276786,14.4866071 19.1071429,15.1339286 L22.6674107,21.3058036 C22.5223214,21.5625 20.6584821,24.84375 17.0758929,31.1495536 C16.6852679,31.8415179 16.2165179,32.1651786 15.6696429,32.1651786 Z M40.1897321,8.27008929 L28.7165179,28.4375 L28.7165179,28.4598214 L36.0267857,41.7410714 C36.3392857,42.3102679 36.0379464,42.8683036 35.3571429,42.8683036 L30.15625,42.8683036 C29.5424107,42.8683036 29.0736607,42.5446429 28.7165179,41.8973214 L21.3504464,28.4709821 C21.6071429,28.0133929 25.4575893,21.2276786 32.890625,8.125 C33.2589286,7.47767857 33.7165179,7.1538465 34.2857143,7.1538465 L39.5200893,7.1538465 C40.15625,7.14285714 40.5022321,7.67857143 40.1897321,8.27008929 Z" id="Shape"></path>
                </g>
            </g>
        </g>
    </g>
</svg>