<?xml version="1.0" encoding="UTF-8"?>
<svg width="50px" height="50px" viewBox="0 0 50 50" version="1.1" xmlns="http://www.w3.org/2000/svg" xmlns:xlink="http://www.w3.org/1999/xlink">
    <title>icons/youtube</title>
    <g id="Symbols" stroke="none" stroke-width="1" fill="none" fill-rule="evenodd">
        <g id="_MOLECULES/slider-some" transform="translate(-997.000000, 0.000000)" fill="#008FD9" fill-rule="nonzero">
            <g id="Group-2" transform="translate(392.000000, 0.000000)">
                <g id="Kanal-1-Copy" transform="translate(604.000000, 0.000000)">
                    <g id="icons/youtube" transform="translate(1.000000, 0.000000)">
                        <path d="M20.8482143,18.984375 L31.4732143,25.0223214 L20.8482143,31.0602679 L20.8482143,18.984375 Z M50,5.35714286 L50,44.6428571 C50,47.6004464 47.6004464,50 44.6428571,50 L5.35714286,50 C2.39955357,50 0,47.6004464 0,44.6428571 L0,5.35714286 C0,2.39955357 2.39955357,0 5.35714286,0 L44.6428571,0 C47.6004464,0 50,2.39955357 50,5.35714286 Z M45.3125,25.0334821 C45.3125,25.0334821 45.3125,18.3816964 44.4642857,15.1897321 C43.9955357,13.4263393 42.6227679,12.0424107 40.8705357,11.5736607 C37.7120536,10.7142857 25,10.7142857 25,10.7142857 C25,10.7142857 12.2879464,10.7142857 9.12946429,11.5736607 C7.37723214,12.0424107 6.00446429,13.4263393 5.53571429,15.1897321 C4.6875,18.3705357 4.6875,25.0334821 4.6875,25.0334821 C4.6875,25.0334821 4.6875,31.6852679 5.53571429,34.8772321 C6.00446429,36.640625 7.37723214,37.96875 9.12946429,38.4375 C12.2879464,39.2857143 25,39.2857143 25,39.2857143 C25,39.2857143 37.7120536,39.2857143 40.8705357,38.4263393 C42.6227679,37.9575893 43.9955357,36.6294643 44.4642857,34.8660714 C45.3125,31.6852679 45.3125,25.0334821 45.3125,25.0334821 L45.3125,25.0334821 Z" id="Shape"></path>
                    </g>
                </g>
            </g>
        </g>
    </g>
</svg>